<svg xmlns="http://www.w3.org/2000/svg" xmlns:xlink="http://www.w3.org/1999/xlink" width="135" height="77" viewBox="0 0 135 77">
  <defs>
    <clipPath id="clip-path">
      <rect id="Retângulo_3018" data-name="Retângulo 3018" width="135" height="77" transform="translate(-0.13 0.337)" fill="none" stroke="#f04f4f" stroke-width="1"/>
    </clipPath>
  </defs>
  <g id="Grupo_de_máscara_257" data-name="Grupo de máscara 257" transform="translate(0.13 -0.337)" clip-path="url(#clip-path)">
    <g id="Grupo_9286" data-name="Grupo 9286" transform="translate(11.019 17.469)">
      <g id="Grupo_9285" data-name="Grupo 9285" transform="translate(0 0)">
        <path id="Caminho_4060" data-name="Caminho 4060" d="M-1895.268-1002.25" transform="translate(1950.486 1034.739)"/>
        <g id="Grupo_9283" data-name="Grupo 9283" transform="translate(64.024 14.938)">
          <path id="Caminho_4061" data-name="Caminho 4061" d="M-1871.163-1024.778h-.638v-18.058h.638v8.723h11.4v-8.723h.638v18.058h-.638v-8.7h-11.4Z" transform="translate(1872.558 1043.848)"/>
          <path id="Caminho_4062" data-name="Caminho 4062" d="M-1872.264-1025.879v-.757h-.637v.757h.757v-18.058h-.757v.757h.637v-.757h-.757v9.48h12.915v-9.48h-.757v.757h.638v-.757h-.757v18.058h.757v-.757h-.638v.757h.757v-9.455h-12.915v9.455h.757v0h.758v-7.941h9.886v8.7h2.152v-19.573h-2.152v8.723h-9.887v-8.723h-2.152v19.573h2.152v-.757Z" transform="translate(1873.658 1044.949)"/>
          <rect id="Retângulo_3017" data-name="Retângulo 3017" width="0.638" height="18.058" transform="translate(18.178 1.012)"/>
          <path id="Caminho_4063" data-name="Caminho 4063" d="M-1829.512-1025.879v-.757h-.638v.757h.757v-18.058h-.757v.757h.638v-.757h-.757v18.058h.757v0h.757v-18.815h-2.152v19.573h2.152v-.757Z" transform="translate(1848.329 1044.949)"/>
          <path id="Caminho_4064" data-name="Caminho 4064" d="M-1807.61-1042.2h-6.019v17.42h-.638v-17.42h-6.019v-.638h12.676Z" transform="translate(1842.035 1043.848)"/>
          <path id="Caminho_4065" data-name="Caminho 4065" d="M-1808.711-1043.3v-.757h-6.777v18.178h.757v-.757h-.638v.757h.757v-18.178h-6.777v.757h.757v-.638h-.757v.757h12.677v-.757h-.757v.638h.757v0h.757v-1.395h-14.19v2.152h6.019v17.42h2.152v-17.42h6.019v-.757Z" transform="translate(1843.136 1044.949)"/>
          <path id="Caminho_4066" data-name="Caminho 4066" d="M-1778.7-1034.688c2.959.586,6.172,1.785,5.917,5.331-.2,2.907-3.112,4.463-6.07,4.463a7,7,0,0,1-5.943-2.908l.586-.255a6.548,6.548,0,0,0,5.407,2.55c2.5,0,4.974-1.2,5.331-3.851.229-3.214-2.576-4.106-5.382-4.719-2.7-.561-5.943-1.581-5.79-5,.1-2.984,2.933-4.387,5.815-4.387,2.321,0,4.489.816,5.611,2.78l-.586.229a5.7,5.7,0,0,0-5.025-2.4c-2.551,0-5,1.071-5.178,3.775C-1784.209-1036.4-1781.608-1035.275-1778.7-1034.688Z" transform="translate(1821.007 1044.219)"/>
          <path id="Caminho_4067" data-name="Caminho 4067" d="M-1780.344-1035.789l-.147.743a15.729,15.729,0,0,1,2.03.528,6.075,6.075,0,0,1,2.383,1.361,3.106,3.106,0,0,1,.663.987,3.411,3.411,0,0,1,.245,1.323c0,.108,0,.219-.012.335h0a3.361,3.361,0,0,1-.505,1.575,3.768,3.768,0,0,1-.817.915,5.406,5.406,0,0,1-1.8.94,7.324,7.324,0,0,1-2.2.33,7.275,7.275,0,0,1-2.984-.621,5.443,5.443,0,0,1-2.328-1.948l-.631.418.3.694.586-.255-.3-.694-.621.433a6.458,6.458,0,0,0,2.658,2.163,8.194,8.194,0,0,0,3.37.712,8.048,8.048,0,0,0,2.029-.253,5.92,5.92,0,0,0,2.645-1.427,4.7,4.7,0,0,0,.922-1.244,4.919,4.919,0,0,0,.486-1.583l0-.023,0-.024c.01-.141.015-.28.015-.416a4.28,4.28,0,0,0-.569-2.215,4.248,4.248,0,0,0-1.043-1.174,7.207,7.207,0,0,0-2.073-1.083,19.546,19.546,0,0,0-2.307-.624h-.008a17.628,17.628,0,0,1-1.937-.5,8.288,8.288,0,0,1-1.314-.55,3.965,3.965,0,0,1-1.412-1.178,2.809,2.809,0,0,1-.386-.788,3.405,3.405,0,0,1-.143-1.012c0-.065,0-.13,0-.2v-.009a3.287,3.287,0,0,1,.442-1.585,3.344,3.344,0,0,1,.76-.88,4.93,4.93,0,0,1,1.716-.886,7.412,7.412,0,0,1,2.14-.3,7.022,7.022,0,0,1,2.938.583,4.371,4.371,0,0,1,2.016,1.815l.658-.376-.276-.7-.587.229.276.7.656-.379a4.784,4.784,0,0,0-1.068-1.264,6.213,6.213,0,0,0-2.161-1.15,8.281,8.281,0,0,0-2.452-.363,8.719,8.719,0,0,0-2.038.231,5.542,5.542,0,0,0-2.628,1.38,4.169,4.169,0,0,0-.876,1.257,4.629,4.629,0,0,0-.391,1.614l.755.05-.755-.058c-.01.118-.014.234-.014.349a3.762,3.762,0,0,0,.549,2,4.261,4.261,0,0,0,1,1.1,7.333,7.333,0,0,0,2.02,1.089,15.684,15.684,0,0,0,2.36.648h0l.147-.743.15-.743a15.008,15.008,0,0,1-1.914-.5,7.734,7.734,0,0,1-1.194-.519,3.5,3.5,0,0,1-1.192-1,2.152,2.152,0,0,1-.3-.6,2.387,2.387,0,0,1-.107-.732c0-.075,0-.153.009-.233v-.008a2.984,2.984,0,0,1,.415-1.385,2.78,2.78,0,0,1,.655-.729,4.171,4.171,0,0,1,1.476-.715,7.027,7.027,0,0,1,1.876-.239,6.481,6.481,0,0,1,2.606.521,4.373,4.373,0,0,1,1.032.635,3.273,3.273,0,0,1,.732.863l.326.563,2.009-.786-.435-.761a5.892,5.892,0,0,0-2.7-2.439,8.538,8.538,0,0,0-3.573-.723,9.062,9.062,0,0,0-2.3.291,6.3,6.3,0,0,0-2.929,1.626,4.684,4.684,0,0,0-.95,1.415,4.928,4.928,0,0,0-.389,1.787l.757.026-.757-.034c0,.09-.006.177-.006.265a4.6,4.6,0,0,0,.644,2.424,4.761,4.761,0,0,0,1.15,1.277,7.9,7.9,0,0,0,2.236,1.174,18.143,18.143,0,0,0,2.369.635l.154-.741-.161.739a19.436,19.436,0,0,1,1.905.5,7.706,7.706,0,0,1,1.214.5,3.368,3.368,0,0,1,1.232,1.032,2.416,2.416,0,0,1,.326.685,3.139,3.139,0,0,1,.121.9c0,.1,0,.2-.011.308l.755.054-.75-.1a3.315,3.315,0,0,1-.513,1.4,3.709,3.709,0,0,1-1.675,1.333,6.152,6.152,0,0,1-2.393.458,6.684,6.684,0,0,1-2.744-.576,4.946,4.946,0,0,1-2.042-1.65l-.355-.509-1.983.862.5.753a6.958,6.958,0,0,0,2.964,2.49,8.779,8.779,0,0,0,3.61.756,8.932,8.932,0,0,0,2.37-.316,6.772,6.772,0,0,0,3.006-1.68,5.041,5.041,0,0,0,1-1.411,4.918,4.918,0,0,0,.452-1.761h0q.016-.226.016-.443a4.771,4.771,0,0,0-.63-2.444,4.913,4.913,0,0,0-1.14-1.317,7.88,7.88,0,0,0-2.271-1.245,16.5,16.5,0,0,0-2.5-.678l-.007,0,.009,0Z" transform="translate(1822.651 1045.32)"/>
        </g>
        <g id="Grupo_9284" data-name="Grupo 9284">
          <path id="Caminho_4068" data-name="Caminho 4068" d="M-1961.178-1021.115a3.782,3.782,0,0,0-1.238-.814,4.016,4.016,0,0,0-1.539-.3,3.959,3.959,0,0,0-1.506.282,3.651,3.651,0,0,0-1.2.8,3.857,3.857,0,0,0-.815,1.207,3.689,3.689,0,0,0-.3,1.471,4.291,4.291,0,0,0,.284,1.575,3.918,3.918,0,0,0,.8,1.271,3.61,3.61,0,0,0,1.2.844,3.755,3.755,0,0,0,1.5.3,4.006,4.006,0,0,0,1.539-.3,3.979,3.979,0,0,0,1.256-.816,3.648,3.648,0,0,0,.828-1.236,4,4,0,0,0,.3-1.539,3.883,3.883,0,0,0-.3-1.521A3.827,3.827,0,0,0-1961.178-1021.115Z" transform="translate(1993.448 1046.575)"/>
          <path id="Caminho_4069" data-name="Caminho 4069" d="M-1978.614-1065.191a24.712,24.712,0,0,0-23.405-16.786,24.711,24.711,0,0,0-23.668,17.617,10.155,10.155,0,0,0-5.085,8.959c0,5.546,4.153,10.042,9.275,10.042.276,0,.549-.015.819-.041a20.8,20.8,0,0,0,18.66,11.6,20.808,20.808,0,0,0,19.177-12.729c4.887-.286,8.767-4.665,8.767-10.026A10.222,10.222,0,0,0-1978.614-1065.191Zm-31.847,15.99a4.6,4.6,0,0,1-1.116,1.528,4.884,4.884,0,0,1-1.729.994,6.906,6.906,0,0,1-2.216.339,10.64,10.64,0,0,1-2.078-.2c-.529-.106-1.665-.473-2.109-.619a.266.266,0,0,1-.183-.254v-2.857c0-.335.263-.431.527-.335a11.022,11.022,0,0,0,3.908.955,2.127,2.127,0,0,0,1.621-.516,1.059,1.059,0,0,0,.26-.768,1.329,1.329,0,0,0-.07-.4.608.608,0,0,0-.267-.3,4.545,4.545,0,0,0-.692-.329,11.156,11.156,0,0,0-1.2-.371,7.153,7.153,0,0,1-3.23-1.63,3.748,3.748,0,0,1-1.025-2.734,4.485,4.485,0,0,1,.4-1.889,4.4,4.4,0,0,1,1.1-1.479,5.063,5.063,0,0,1,1.675-.958,6.4,6.4,0,0,1,2.12-.34,9.685,9.685,0,0,1,1.777.151,10.961,10.961,0,0,1,1.912.5.271.271,0,0,1,.187.256v2.72c0,.383-.216.452-.409.383-.335-.12-.918-.322-1.578-.507a6.427,6.427,0,0,0-1.725-.256,2.546,2.546,0,0,0-1.454.361,1.055,1.055,0,0,0-.493.928.784.784,0,0,0,.575.745c.1.042.2.079.288.112s.194.07.323.113.306.1.549.162.589.166,1.024.3a9.058,9.058,0,0,1,1.511.555,3.719,3.719,0,0,1,.971.677,3.892,3.892,0,0,1,.913,1.328,4.273,4.273,0,0,1,.328,1.67A4.77,4.77,0,0,1-2010.462-1049.2Zm16.117-1.7a7.663,7.663,0,0,1-1.606,2.362,7.625,7.625,0,0,1-2.384,1.6,7.27,7.27,0,0,1-2.9.592,7.431,7.431,0,0,1-3.537-.895,7.085,7.085,0,0,1-2.659-2.417,7.9,7.9,0,0,1-.558-1.047,6.153,6.153,0,0,1-.359-1.138,9.633,9.633,0,0,1-.185-1.41c-.033-.517-.05-1.136-.05-1.838V-1068.6a.268.268,0,0,1,.268-.268h3.1a.268.268,0,0,1,.269.268v8.723a6.7,6.7,0,0,1,3.921-1.292,6.856,6.856,0,0,1,2.791.592,7.338,7.338,0,0,1,2.314,1.6,8.069,8.069,0,0,1,1.567,2.342,7.01,7.01,0,0,1,.592,2.858A7.11,7.11,0,0,1-1994.345-1050.9Zm10.926-7.086a.268.268,0,0,1-.268.268h-2.693v5.089a3.1,3.1,0,0,0,.539,2.109,2.854,2.854,0,0,0,2,.591h.15a.268.268,0,0,1,.268.268v3.005a.268.268,0,0,1-.268.268h-.45a5.76,5.76,0,0,1-4.71-1.934,4.968,4.968,0,0,1-.9-1.788,9.934,9.934,0,0,1-.272-2.553v-5.055h-2.134a.268.268,0,0,1-.268-.268v-3.005a.268.268,0,0,1,.268-.268h2.134v-4.227a.268.268,0,0,1,.268-.268h3.1a.268.268,0,0,1,.268.268v4.227h2.693a.268.268,0,0,1,.268.268Zm.069-8.613a8.638,8.638,0,0,0-1.57.146,20.778,20.778,0,0,0-17.1-8.955,20.793,20.793,0,0,0-17.854,10.121,8.637,8.637,0,0,0-1.625-.157c-.243,0-.482.013-.72.033a21.9,21.9,0,0,1,20.3-13.691,22.183,22.183,0,0,1,19.992,12.621A8.622,8.622,0,0,0-1983.35-1066.6Z" transform="translate(2030.773 1081.977)"/>
        </g>
      </g>
    </g>
  </g>
</svg>
