<svg xmlns="http://www.w3.org/2000/svg" xmlns:xlink="http://www.w3.org/1999/xlink" width="133" height="77" viewBox="0 0 133 77">
  <defs>
    <clipPath id="clip-path">
      <rect id="Ret칙ngulo_3014" data-name="Ret칙ngulo 3014" width="133" height="77" transform="translate(0.109 0.337)" fill="none" stroke="#f04f4f" stroke-width="1"/>
    </clipPath>
  </defs>
  <g id="Grupo_de_m치scara_255" data-name="Grupo de m치scara 255" transform="translate(-0.109 -0.337)" clip-path="url(#clip-path)">
    <g id="Grupo_9278" data-name="Grupo 9278" transform="translate(4.736 13.401)">
      <g id="Grupo_9277" data-name="Grupo 9277" transform="translate(0 0)">
        <g id="Grupo_9275" data-name="Grupo 9275" transform="translate(53.963)">
          <path id="Caminho_4034" data-name="Caminho 4034" d="M-2321.42-1086.576v22.419l19.064-11.21Z" transform="translate(2321.42 1086.576)"/>
          <path id="Caminho_4035" data-name="Caminho 4035" d="M-2321.42-1036.046v4.13l19.064-11.209-3.512-2.065Z" transform="translate(2321.42 1060.577)"/>
        </g>
        <g id="Grupo_9276" data-name="Grupo 9276" transform="translate(0 41.177)">
          <path id="Caminho_4036" data-name="Caminho 4036" d="M-2442.351-979.74c-1.443-.476-2.259-.795-2.259-1.8s.805-1.68,2-1.68a2.377,2.377,0,0,1,2.332,1.569l.1.236,1.035-.577-.078-.187a3.557,3.557,0,0,0-3.387-2.215,2.932,2.932,0,0,0-3.221,2.881c0,1.872,1.577,2.384,3.247,2.926l.046.015c1.625.516,2.4.933,2.4,1.9,0,1.1-.844,1.75-2.258,1.75a2.605,2.605,0,0,1-2.747-1.827l-.081-.281-1.059.622.056.173a3.749,3.749,0,0,0,3.831,2.487c2.079,0,3.475-1.181,3.475-2.938C-2438.919-978.605-2440.664-979.182-2442.351-979.74Z" transform="translate(2446.281 984.397)"/>
          <path id="Caminho_4037" data-name="Caminho 4037" d="M-2412.633-977.222a2.377,2.377,0,0,1-2.655,2.513,2.369,2.369,0,0,1-2.64-2.513v-6.807h-1.2v6.807a3.566,3.566,0,0,0,3.841,3.687,3.573,3.573,0,0,0,3.857-3.687v-6.807h-1.2Z" transform="translate(2430.584 984.185)"/>
          <path id="Caminho_4038" data-name="Caminho 4038" d="M-2275.8-983.661h-1.2v10.339h5.863v-1.16h-4.661Z" transform="translate(2348.42 983.972)"/>
          <path id="Caminho_4039" data-name="Caminho 4039" d="M-2219.815-983.661l-2.994,4.891-3.008-4.891h-1.382l3.781,6.077v4.262h1.2l-.018-4.2,3.8-6.138Z" transform="translate(2319.629 983.972)"/>
          <path id="Caminho_4040" data-name="Caminho 4040" d="M-2194.527-977.954h2.757v-1.16h-2.757V-982.5h4.871v-1.16h-6.074v10.339h6.144v-1.16h-4.941Z" transform="translate(2301.436 983.972)"/>
          <path id="Caminho_4041" data-name="Caminho 4041" d="M-2326.89-980.511a3.154,3.154,0,0,0-3.15-3.15h-4.125v10.339h1.2V-982.5h2.923a1.972,1.972,0,0,1,1.948,1.99,1.965,1.965,0,0,1-1.948,1.977h-1.656v1.159h1.5l2.372,4.053h1.389l-2.515-4.249A3.136,3.136,0,0,0-2326.89-980.511Z" transform="translate(2381.467 983.972)"/>
          <path id="Caminho_4042" data-name="Caminho 4042" d="M-2385.662-983.661h-3.587v10.339h1.2V-982.5h2.385a2.047,2.047,0,0,1,2.1,2.131,2.041,2.041,0,0,1-2.1,2.118h-1.118v1.159h1.118a3.219,3.219,0,0,0,3.305-3.277A3.226,3.226,0,0,0-2385.662-983.661Z" transform="translate(2413.311 983.972)"/>
          <path id="Caminho_4043" data-name="Caminho 4043" d="M-2300.327-983.661h-3.589v10.339h1.2V-982.5h2.388a2.047,2.047,0,0,1,2.1,2.131,2.041,2.041,0,0,1-2.1,2.118h-1.1v1.159h1.1a3.219,3.219,0,0,0,3.3-3.277A3.226,3.226,0,0,0-2300.327-983.661Z" transform="translate(2363.979 983.972)"/>
          <path id="Caminho_4044" data-name="Caminho 4044" d="M-2250.286-983.661l-4.017,10.339h1.278l3.289-8.56,1.874,4.887h-2.544l-.5,1.16h3.49l.96,2.513h1.278l-4-10.339Z" transform="translate(2335.298 983.972)"/>
          <path id="Caminho_4045" data-name="Caminho 4045" d="M-2164.49-977.572a3.135,3.135,0,0,0,2.061-2.939,3.154,3.154,0,0,0-3.15-3.15h-4.124v10.339h1.2v-3.225l0-.113v-2.666h0V-982.5h2.922a1.971,1.971,0,0,1,1.948,1.99,1.965,1.965,0,0,1-1.948,1.977h-1.663v1.159h1.5l2.374,4.053h1.388Z" transform="translate(2286.391 983.972)"/>
          <path id="Caminho_4046" data-name="Caminho 4046" d="M-2360.214-977.954h2.748v-1.16h-2.748V-982.5h4.872v-1.16h-6.074v10.339h6.145v-1.16h-4.943Z" transform="translate(2397.22 983.972)"/>
        </g>
      </g>
    </g>
  </g>
</svg>
