<svg xmlns="http://www.w3.org/2000/svg" xmlns:xlink="http://www.w3.org/1999/xlink" width="134" height="77" viewBox="0 0 134 77">
  <defs>
    <clipPath id="clip-path">
      <rect id="Ret칙ngulo_3022" data-name="Ret칙ngulo 3022" width="134" height="77" transform="translate(-0.426 0.337)" fill="none" stroke="#f04f4f" stroke-width="1"/>
    </clipPath>
  </defs>
  <g id="Grupo_de_m치scara_261" data-name="Grupo de m치scara 261" transform="translate(0.426 -0.337)" clip-path="url(#clip-path)">
    <g id="Grupo_9312" data-name="Grupo 9312" transform="translate(21.366 4.889)">
      <g id="Grupo_9298" data-name="Grupo 9298" transform="translate(19.304 39.331)">
        <g id="Grupo_9293" data-name="Grupo 9293" transform="translate(0 0.298)">
          <path id="Caminho_4074" data-name="Caminho 4074" d="M-2373.359-791.111h2.935v8.476h5.126v2.588h-8.061Z" transform="translate(2373.359 791.111)"/>
        </g>
        <g id="Grupo_9294" data-name="Grupo 9294" transform="translate(8.542)">
          <path id="Caminho_4075" data-name="Caminho 4075" d="M-2346.284-780.228a5.9,5.9,0,0,1-2.3-.44,5.587,5.587,0,0,1-1.824-1.21,5.46,5.46,0,0,1-1.2-1.841,6.17,6.17,0,0,1-.432-2.331,6.169,6.169,0,0,1,.432-2.33,5.455,5.455,0,0,1,1.2-1.841,5.483,5.483,0,0,1,1.824-1.2,6,6,0,0,1,2.3-.432,6.064,6.064,0,0,1,2.306.432,5.377,5.377,0,0,1,1.824,1.2,5.522,5.522,0,0,1,1.195,1.841,6.183,6.183,0,0,1,.431,2.33,6.184,6.184,0,0,1-.431,2.331,5.527,5.527,0,0,1-1.195,1.841,5.476,5.476,0,0,1-1.824,1.21A5.962,5.962,0,0,1-2346.284-780.228Zm0-2.753a2.651,2.651,0,0,0,1.153-.241,2.5,2.5,0,0,0,.854-.655,2.884,2.884,0,0,0,.531-.979,3.862,3.862,0,0,0,.182-1.194,3.863,3.863,0,0,0-.182-1.194,2.891,2.891,0,0,0-.531-.979,2.509,2.509,0,0,0-.854-.655,2.656,2.656,0,0,0-1.153-.24,2.65,2.65,0,0,0-1.152.24,2.5,2.5,0,0,0-.854.655,2.871,2.871,0,0,0-.531.979,3.841,3.841,0,0,0-.183,1.194,3.841,3.841,0,0,0,.183,1.194,2.864,2.864,0,0,0,.531.979,2.492,2.492,0,0,0,.854.655A2.645,2.645,0,0,0-2346.284-782.982Z" transform="translate(2352.04 791.856)"/>
        </g>
        <g id="Grupo_9295" data-name="Grupo 9295" transform="translate(21.547 0.298)">
          <path id="Caminho_4076" data-name="Caminho 4076" d="M-2319.583-791.111h2.937v6.486a2.472,2.472,0,0,0,.423,1.493,1.617,1.617,0,0,0,1.4.581,1.585,1.585,0,0,0,1.394-.589,2.519,2.519,0,0,0,.415-1.485v-6.486h2.969v6.751a5.037,5.037,0,0,1-.348,1.916,4.049,4.049,0,0,1-.987,1.451,4.331,4.331,0,0,1-1.51.912,5.586,5.586,0,0,1-1.916.315,5.655,5.655,0,0,1-1.924-.315,4.384,4.384,0,0,1-1.518-.9,3.973,3.973,0,0,1-.988-1.443,5.087,5.087,0,0,1-.348-1.932Z" transform="translate(2319.583 791.111)"/>
        </g>
        <g id="Grupo_9296" data-name="Grupo 9296" transform="translate(32.179 0.298)">
          <path id="Caminho_4077" data-name="Caminho 4077" d="M-2293.045-791.111h3.2l2.488,7.7,2.322-7.7h3.135l-4.031,11.064h-3.1Z" transform="translate(2293.045 791.111)"/>
        </g>
        <g id="Grupo_9297" data-name="Grupo 9297" transform="translate(44.486 0.298)">
          <path id="Caminho_4078" data-name="Caminho 4078" d="M-2262.328-791.111h7.962v2.538h-5.026v1.708h4.13v2.389h-4.13v1.891h5.374v2.538h-8.31Z" transform="translate(2262.328 791.111)"/>
        </g>
      </g>
      <g id="Grupo_9300" data-name="Grupo 9300" transform="translate(0 28.168)">
        <g id="Grupo_9299" data-name="Grupo 9299">
          <path id="Caminho_4079" data-name="Caminho 4079" d="M-2330.6-786.86h-90.94v-32.856h90.94Zm-88.878-2.063h86.814v-28.731h-86.814Z" transform="translate(2421.539 819.716)"/>
        </g>
      </g>
      <g id="Grupo_9311" data-name="Grupo 9311" transform="translate(17.127)">
        <g id="Grupo_9301" data-name="Grupo 9301" transform="translate(19.332 19.332)">
          <path id="Caminho_4080" data-name="Caminho 4080" d="M-2312.522-832.758h-.549a8.472,8.472,0,0,0-8.462-8.461,8.471,8.471,0,0,0-8.461,8.461h-.55a9.021,9.021,0,0,1,9.011-9.011A9.021,9.021,0,0,1-2312.522-832.758Z" transform="translate(2330.544 841.769)"/>
        </g>
        <g id="Grupo_9302" data-name="Grupo 9302" transform="translate(17.184 17.184)">
          <path id="Caminho_4081" data-name="Caminho 4081" d="M-2313.586-835.971h-.55a10.621,10.621,0,0,0-10.61-10.609,10.621,10.621,0,0,0-10.609,10.609h-.55a11.172,11.172,0,0,1,11.159-11.159A11.172,11.172,0,0,1-2313.586-835.971Z" transform="translate(2335.905 847.13)"/>
        </g>
        <g id="Grupo_9303" data-name="Grupo 9303" transform="translate(15.036 15.036)">
          <path id="Caminho_4082" data-name="Caminho 4082" d="M-2314.652-839.184h-.549a12.772,12.772,0,0,0-12.758-12.757,12.772,12.772,0,0,0-12.758,12.757h-.549a13.322,13.322,0,0,1,13.307-13.307A13.322,13.322,0,0,1-2314.652-839.184Z" transform="translate(2341.266 852.491)"/>
        </g>
        <g id="Grupo_9304" data-name="Grupo 9304" transform="translate(12.888 12.888)">
          <path id="Caminho_4083" data-name="Caminho 4083" d="M-2315.717-842.4h-.55a14.922,14.922,0,0,0-14.905-14.905,14.922,14.922,0,0,0-14.906,14.905h-.55a15.473,15.473,0,0,1,15.456-15.455A15.472,15.472,0,0,1-2315.717-842.4Z" transform="translate(2346.627 857.852)"/>
        </g>
        <g id="Grupo_9305" data-name="Grupo 9305" transform="translate(10.74 10.74)">
          <path id="Caminho_4084" data-name="Caminho 4084" d="M-2316.781-845.61h-.55a17.073,17.073,0,0,0-17.054-17.053,17.073,17.073,0,0,0-17.053,17.053h-.55a17.623,17.623,0,0,1,17.6-17.6A17.623,17.623,0,0,1-2316.781-845.61Z" transform="translate(2351.988 863.213)"/>
        </g>
        <g id="Grupo_9306" data-name="Grupo 9306" transform="translate(8.592 8.592)">
          <path id="Caminho_4085" data-name="Caminho 4085" d="M-2317.848-848.823h-.55a19.223,19.223,0,0,0-19.2-19.2,19.223,19.223,0,0,0-19.2,19.2h-.55a19.774,19.774,0,0,1,19.752-19.751A19.774,19.774,0,0,1-2317.848-848.823Z" transform="translate(2357.351 868.574)"/>
        </g>
        <g id="Grupo_9307" data-name="Grupo 9307" transform="translate(6.444 6.444)">
          <path id="Caminho_4086" data-name="Caminho 4086" d="M-2318.912-852.036h-.55a21.374,21.374,0,0,0-21.349-21.35,21.374,21.374,0,0,0-21.35,21.35h-.55a21.924,21.924,0,0,1,21.9-21.9A21.925,21.925,0,0,1-2318.912-852.036Z" transform="translate(2362.711 873.936)"/>
        </g>
        <g id="Grupo_9308" data-name="Grupo 9308" transform="translate(4.296 4.296)">
          <path id="Caminho_4087" data-name="Caminho 4087" d="M-2319.978-855.25h-.55a23.524,23.524,0,0,0-23.5-23.5,23.524,23.524,0,0,0-23.5,23.5h-.55a24.075,24.075,0,0,1,24.048-24.047A24.075,24.075,0,0,1-2319.978-855.25Z" transform="translate(2368.072 879.297)"/>
        </g>
        <g id="Grupo_9309" data-name="Grupo 9309" transform="translate(2.148 2.148)">
          <path id="Caminho_4088" data-name="Caminho 4088" d="M-2321.042-858.463h-.55a25.675,25.675,0,0,0-25.646-25.645,25.675,25.675,0,0,0-25.645,25.645h-.55a26.225,26.225,0,0,1,26.2-26.2A26.225,26.225,0,0,1-2321.042-858.463Z" transform="translate(2373.433 884.658)"/>
        </g>
        <g id="Grupo_9310" data-name="Grupo 9310">
          <path id="Caminho_4089" data-name="Caminho 4089" d="M-2322.108-861.676h-.55a27.825,27.825,0,0,0-27.793-27.793,27.824,27.824,0,0,0-27.793,27.793h-.551a28.376,28.376,0,0,1,28.343-28.344A28.376,28.376,0,0,1-2322.108-861.676Z" transform="translate(2378.794 890.019)"/>
        </g>
      </g>
    </g>
  </g>
</svg>
