<svg xmlns="http://www.w3.org/2000/svg" xmlns:xlink="http://www.w3.org/1999/xlink" width="133" height="77" viewBox="0 0 133 77">
  <defs>
    <clipPath id="clip-path">
      <rect id="Ret칙ngulo_3023" data-name="Ret칙ngulo 3023" width="133" height="77" transform="translate(0.485 0.337)" fill="none" stroke="#f04f4f" stroke-width="1"/>
    </clipPath>
  </defs>
  <g id="Grupo_de_m치scara_262" data-name="Grupo de m치scara 262" transform="translate(-0.485 -0.337)" clip-path="url(#clip-path)">
    <g id="Grupo_9314" data-name="Grupo 9314" transform="translate(17.742 13.315)">
      <g id="Grupo_9313" data-name="Grupo 9313" transform="translate(0.473 0)">
        <path id="Caminho_4090" data-name="Caminho 4090" d="M-2391.07-542.41l-9.42,23.192h1.1l3.041-7.522h11.421l3.009,7.522h1.068l-9.159-23.192Zm5.755,14.691h-10.639l5.412-13.5Z" transform="translate(2400.49 542.41)"/>
        <path id="Caminho_4091" data-name="Caminho 4091" d="M-2337.187-541.274l.034-.045v-1.091h-16.055v.98h14.905l-15.767,21.076-.034.045v1.091h17.207v-.98h-16.058Z" transform="translate(2374.158 542.41)"/>
        <path id="Caminho_4092" data-name="Caminho 4092" d="M-2295.03-527.9c0,5.473-2.549,8.248-7.576,8.248s-7.575-2.775-7.575-8.248V-542.41h-.98V-527.9c0,6.037,2.959,9.227,8.555,9.227s8.556-3.19,8.556-9.227V-542.41h-.98Z" transform="translate(2349.78 542.41)"/>
        <path id="Caminho_4093" data-name="Caminho 4093" d="M-2266.053-520.2V-542.41h-.98v23.192h14.326v-.98Z" transform="translate(2324.729 542.41)"/>
      </g>
      <path id="Caminho_4094" data-name="Caminho 4094" d="M-2391.243-465.527l-.916-.23c-.362-.086-.725-.168-1.084-.25-3.585-.813-6.682-1.515-6.682-5.139,0-4.728,5.374-5.095,7.021-5.095,4.689,0,7.139,2.073,7.278,6.16l.006.164h.983l-.007-.177c-.2-4.663-3.061-7.129-8.26-7.129a10.691,10.691,0,0,0-5.389,1.268,5.267,5.267,0,0,0-2.614,4.808c0,4.4,3.7,5.251,7.271,6.071l.563.129c.416.1.853.2,1.276.294,3.254.724,6.619,1.472,6.619,5.417a4.682,4.682,0,0,1-2.3,4.114,9.438,9.438,0,0,1-4.981,1.269c-5.4,0-8.145-2.47-8.145-7.342v-.17h-.979l0,.167a7.9,7.9,0,0,0,2.038,5.906c1.557,1.583,4.008,2.42,7.088,2.42,4.111,0,8.26-1.958,8.26-6.333C-2384.2-463.773-2387.462-464.586-2391.243-465.527Z" transform="translate(2401.583 505.404)"/>
      <path id="Caminho_4095" data-name="Caminho 4095" d="M-2348.849-477.222a9.929,9.929,0,0,0-7.989,3.622,13.523,13.523,0,0,0-2.743,8.554,13.524,13.524,0,0,0,2.743,8.554,9.93,9.93,0,0,0,7.989,3.622,9.927,9.927,0,0,0,7.988-3.622,13.521,13.521,0,0,0,2.743-8.554,13.52,13.52,0,0,0-2.743-8.554A9.926,9.926,0,0,0-2348.849-477.222Zm9.749,12.175c-.065,6.8-3.892,11.2-9.749,11.2s-9.684-4.395-9.75-11.192c.066-6.8,3.893-11.2,9.75-11.2S-2339.165-471.846-2339.1-465.048Z" transform="translate(2377.74 505.404)"/>
      <path id="Caminho_4096" data-name="Caminho 4096" d="M-2290.277-461.407c0,5.489-2.556,8.272-7.6,8.272s-7.6-2.783-7.6-8.272v-14.552h-.982v14.552c0,6.054,2.967,9.254,8.581,9.254s8.581-3.2,8.581-9.254v-14.552h-.982Z" transform="translate(2347.582 504.687)"/>
      <path id="Caminho_4097" data-name="Caminho 4097" d="M-2207.727-475.959h-8.2v23.26h7.2a10.921,10.921,0,0,0,7.562-2.693c2.231-2.051,3.362-5.058,3.362-8.937C-2197.8-474.826-2204.742-475.959-2207.727-475.959Zm-.834,22.279h-6.379v-21.3h7.052c4.155,0,9.108,1.847,9.108,10.648C-2198.78-456.478-2203.833-453.681-2208.562-453.681Z" transform="translate(2296.188 504.687)"/>
      <path id="Caminho_4098" data-name="Caminho 4098" d="M-2266.824-459.751v.3a.314.314,0,0,1-.115.245.291.291,0,0,1-.245.063,3.139,3.139,0,0,0-1.765.2,3.11,3.11,0,0,0-1.44,1.129,1.583,1.583,0,0,0-.221,1.481,1.584,1.584,0,0,0,1.189.91,2.626,2.626,0,0,0,.576.062,3.338,3.338,0,0,0,1.243-.252,2.522,2.522,0,0,0,1.759-2.431V-481.6l15.472,21.845h1.221v-23.26h0v-1.28a.315.315,0,0,1,.115-.245.291.291,0,0,1,.245-.063,3.136,3.136,0,0,0,1.765-.2,3.11,3.11,0,0,0,1.44-1.129,1.586,1.586,0,0,0,.222-1.481,1.584,1.584,0,0,0-1.19-.91,2.615,2.615,0,0,0-.576-.062,3.343,3.343,0,0,0-1.244.252,2.523,2.523,0,0,0-1.759,2.432v2.687h0v21.845l-15.472-21.845h-1.221Z" transform="translate(2327.288 511.739)"/>
    </g>
  </g>
</svg>
