<svg xmlns="http://www.w3.org/2000/svg" xmlns:xlink="http://www.w3.org/1999/xlink" width="133" height="77" viewBox="0 0 133 77">
  <defs>
    <clipPath id="clip-path">
      <rect id="Retângulo_3016" data-name="Retângulo 3016" width="133" height="77" transform="translate(0.021 0.337)" fill="none" stroke="#f04f4f" stroke-width="1"/>
    </clipPath>
    <clipPath id="clip-path-2">
      <rect id="Retângulo_3015" data-name="Retângulo 3015" width="127" height="34" transform="translate(-0.158 -0.208)"/>
    </clipPath>
  </defs>
  <g id="Grupo_de_máscara_256" data-name="Grupo de máscara 256" transform="translate(-0.021 -0.337)" clip-path="url(#clip-path)">
    <g id="Grupo_9281" data-name="Grupo 9281" transform="translate(3.178 27.545)">
      <g id="Grupo_9280" data-name="Grupo 9280" transform="translate(0 0)">
        <g id="Grupo_9279" data-name="Grupo 9279" transform="translate(0 0)" clip-path="url(#clip-path-2)">
          <path id="Caminho_4047" data-name="Caminho 4047" d="M829.566,412.765h-7.69c-1.773,0-3.033-.422-3.748-1.256a2.457,2.457,0,0,1-.586-1.793V398.82a1.72,1.72,0,0,1,.52-1.276,2.867,2.867,0,0,1,1.917-.632h1.081V394a2.233,2.233,0,0,1,.416-1.695,2.067,2.067,0,0,1,1.679-.676H831.8c.082,0,5.659.255,8.236-2.189a3.989,3.989,0,0,0,1.274-3.048.5.5,0,0,1,1,0,5,5,0,0,1-1.586,3.769c-1.677,1.59-4.34,2.168-6.326,2.37l0,.3c.015,1.4.036,3.323-.993,4.361a2.477,2.477,0,0,1-1.831.7l-9.518.013v7.082a.721.721,0,0,0,.208.552,1.837,1.837,0,0,0,1.146.359l9.066,0a1.2,1.2,0,0,1,.967.243c.315.312.309.734.291,1.987,0,.375-.011.829-.011,1.38a2.848,2.848,0,0,1-.853,2.123,5.119,5.119,0,0,1-3.3,1.137M819.912,397.9a1.858,1.858,0,0,0-1.162.358.726.726,0,0,0-.212.558v10.924a.5.5,0,0,1-.006.077,1.434,1.434,0,0,0,.366,1.057,3.954,3.954,0,0,0,2.978.894h7.646a4.261,4.261,0,0,0,2.655-.856,1.866,1.866,0,0,0,.55-1.41c0-.557.007-1.016.012-1.393a12.079,12.079,0,0,0-.014-1.226l-.228,0c-.085,0-.179,0-.284,0H823.42a2.777,2.777,0,0,1-1.849-.638,1.718,1.718,0,0,1-.513-1.267V397.9h-1.147m11.863-5.284h-8.621a1.144,1.144,0,0,0-.911.314,1.284,1.284,0,0,0-.2.934.505.505,0,0,1,.009.089v2.954l9.517-.014a1.5,1.5,0,0,0,1.124-.406c.737-.744.718-2.424.705-3.652l0-.235c-.918.047-1.547.018-1.624.015" transform="translate(-715.149 -379.067)"/>
          <path id="Caminho_4048" data-name="Caminho 4048" d="M190.5,443.067a.5.5,0,1,1,0-.993h6.857a19.356,19.356,0,0,0,4.57-.515c0-.762-.013-1.349-.013-1.351v-16.88a2.428,2.428,0,0,1,.558-1.65,1.684,1.684,0,0,1,1.254-.5h14.312a5.3,5.3,0,0,1,3.814,1.188,5.5,5.5,0,0,1,1.691,3.884h3.164a2.028,2.028,0,0,1,1.567.591,1.828,1.828,0,0,1,.449,1.321l0,11.884a2.171,2.171,0,0,1-.564,1.637,1.343,1.343,0,0,1-.94.377H224.4a1.8,1.8,0,0,1-1.46-.588,1.88,1.88,0,0,1-.365-1.415V427.238h-2.619a1.047,1.047,0,0,0-.685.16.426.426,0,0,0-.119.348v12.662a2.083,2.083,0,0,1-.439,1.471,1.474,1.474,0,0,1-1.139.47h-3.925a1.315,1.315,0,0,1-.965-.287,1.472,1.472,0,0,1-.469-1.188V427.7a.314.314,0,0,0-.081-.23.836.836,0,0,0-.576-.154h-3.092c-.258,0-.387.183-.387.532v8.727a5.11,5.11,0,0,1-1.46,3.559c-1.775,1.921-4.89,2.909-9.258,2.938Zm21.058-16.748a1.707,1.707,0,0,1,1.315.482,1.293,1.293,0,0,1,.335.937l0,13.137a.607.607,0,0,0,.115.429.315.315,0,0,0,.224.057c.02,0,.051,0,.071,0h3.953a.485.485,0,0,0,.4-.141,1.162,1.162,0,0,0,.187-.76l0-12.71a1.387,1.387,0,0,1,.447-1.084,2.288,2.288,0,0,1,1.4-.414l2.543,0a4.522,4.522,0,0,0-1.347-3.134,4.371,4.371,0,0,0-3.076-.948l-14.4,0a.667.667,0,0,0-.533.2,1.519,1.519,0,0,0-.285.94v16.9s.008.446.012,1.066a7.15,7.15,0,0,0,2.965-1.809,4.134,4.134,0,0,0,1.2-2.848v-8.764a1.525,1.525,0,0,1,.429-1.142,1.412,1.412,0,0,1,.968-.383Zm12.013.92V440.09a.466.466,0,0,1-.008.089.914.914,0,0,0,.145.657.88.88,0,0,0,.693.228h2.846c.227-.007.483-.278.483-1.022V428.112a.867.867,0,0,0-.194-.611,1.1,1.1,0,0,0-.828-.263Z" transform="translate(-189.581 -408.601)"/>
          <path id="Caminho_4049" data-name="Caminho 4049" d="M586.441,438.87c-.272,0-1.631-.115-1.631-2.411,0-2.8.6-2.8,4.51-2.8h6.739c.685,0,1.276-.018,1.791-.053,0-.081,0-.162-.005-.245-.006-.273-.013-.548-.013-.822,0-1.8-1.153-2.092-4.86-2.092l-1.808,0c-4.973,0-4.973-1.867-4.973-5.588,0-2.212,1.513-3.711,4.071-4.066.668-4.034,3.981-4.194,4.015-4.2h5.542c.006,0,.083-.005.2-.005,1.385,0,2.864.594,2.864,2.26v2.358a.5.5,0,0,1-.5.5l-11.117.008h-.107c-.012.191-.018.388-.018.588,0,3.679,0,3.9,3.976,3.9.487,0,.943-.007,1.368-.011.374,0,.725-.009,1.052-.009,2.609,0,4.318.264,4.318,3.8,0,.278.007.543.014.792.054,2.026-.069,3.32-3.02,3.727a4.2,4.2,0,0,1-1.04,3.011c-.907.91-2.47,1.352-4.777,1.352Zm6.59-.994c2.029,0,3.361-.346,4.071-1.06a3.129,3.129,0,0,0,.747-2.212c-.522.035-1.113.051-1.79.051H589.32a10.082,10.082,0,0,0-3.251.23c-.242.138-.263.521-.263,1.574s.342,1.419.635,1.419Zm-.06-8.419c2.879,0,5.856,0,5.856,3.086,0,.266.006.533.012.8,0,.056,0,.11,0,.165,2.094-.3,2.076-.967,2.03-2.7-.007-.257-.015-.53-.015-.818,0-2.53-.672-2.806-3.322-2.806-.324,0-.669,0-1.039.009-.428.006-.888.012-1.381.012-4.789,0-4.972-.934-4.972-4.893,0-.165,0-.328.011-.488-1.31.231-2.97.939-2.97,3.044,0,3.713,0,4.6,3.977,4.6Zm7.044-11.864c-.088,0-.144,0-.152,0h-5.57c-.085,0-2.4.147-3.006,3.131l10.6-.008v-1.861c0-1.1-1.171-1.267-1.868-1.267" transform="translate(-520.24 -404.784)"/>
          <path id="Caminho_4050" data-name="Caminho 4050" d="M720.8,442.521a2.291,2.291,0,0,1-1.491-.5,1.264,1.264,0,0,1-.393-.939V428.52a.479.479,0,0,1,.011-.1.789.789,0,0,0-.094-.554.611.611,0,0,0-.484-.154h-2.592a1.332,1.332,0,0,1-1.442-1.257V423.53a2,2,0,0,1,.445-1.46,2.108,2.108,0,0,1,1.669-.645h12.446a.5.5,0,1,1,0,.993h-3.261v18.267a1.646,1.646,0,0,1-.432,1.167,2.423,2.423,0,0,1-1.872.667h-2.431l-.079,0m-.888-13.958v12.523a.272.272,0,0,0,.083.22,1.454,1.454,0,0,0,.862.221h2.452a1.529,1.529,0,0,0,1.135-.343.681.681,0,0,0,.175-.451l0-18.314h-8.189a1.185,1.185,0,0,0-.915.3,1.027,1.027,0,0,0-.206.722.481.481,0,0,1,0,.062v2.95c0,.261.442.264.446.264h2.592a1.529,1.529,0,0,1,1.259.524,1.736,1.736,0,0,1,.3,1.323" transform="translate(-628.695 -408.825)"/>
          <path id="Caminho_4051" data-name="Caminho 4051" d="M465.941,442.05c-.713,0-1.174-.041-1.194-.043h-.011a2.3,2.3,0,0,1-1.764-.669,1.862,1.862,0,0,1-.462-1.36l0-3.058h-2.555a2.1,2.1,0,0,1-2.249-1.981c0-1.759.036-2.136.041-2.173l0-10.124a2.375,2.375,0,0,1,.4-1.726,1.4,1.4,0,0,1,1.109-.477h2.52a1.411,1.411,0,0,1,.239-.02c.724,0,1.5.516,1.5,1.964v13.545h2.407a1.065,1.065,0,0,0,1.14-1.1V422.755a1.942,1.942,0,0,1,1.7-2.168h3.567a2.092,2.092,0,0,1,1.674.655,2.027,2.027,0,0,1,.425,1.51c0,.524-.053,7.492-.053,13.782,0,4.979-5.887,5.516-8.418,5.516m-2.437-5.13v3.107a.912.912,0,0,0,.213.654,1.436,1.436,0,0,0,1.076.336c.05,0,.485.042,1.148.042,2.232,0,7.423-.441,7.423-4.524,0-6.512.053-13.747.054-13.82a.494.494,0,0,1,.006-.074,1.071,1.071,0,0,0-.2-.756,1.172,1.172,0,0,0-.914-.3h-3.537c-.091.011-.73.125-.73,1.175v12.071a2.053,2.053,0,0,1-2.136,2.094Zm-4.257-15.489a.418.418,0,0,0-.352.129,1.471,1.471,0,0,0-.163.971.513.513,0,0,1,.006.075V432.82c0,.065-.038.43-.038,2.118,0,.954,1.212.988,1.263.989h2.544V422.383c0-.643-.168-.97-.5-.97a.456.456,0,0,0-.08.006.647.647,0,0,1-.112.013Z" transform="translate(-413.787 -407.983)"/>
          <path id="Caminho_4052" data-name="Caminho 4052" d="M458.263,342l1.712,0-.007,2.7a6.567,6.567,0,0,1,1.312-.143c2.11,0,3.045.867,3.04,3.52-.005,2.69-.967,3.514-3.256,3.51a5.747,5.747,0,0,1-2.762-.64c-.037-.438-.056-.834-.055-1.3Zm1.7,7.15a8.59,8.59,0,0,0,.04.918,2.846,2.846,0,0,0,1.067.183c1.464,0,1.532-1.057,1.534-2.176,0-1.246-.038-2.169-1.676-2.171a3.529,3.529,0,0,0-.959.147Z" transform="translate(-414.242 -342.305)"/>
          <path id="Caminho_4053" data-name="Caminho 4053" d="M504.4,364.777l.01-5.005c0-.465.017-.861.061-1.3a5.741,5.741,0,0,1,2.76-.628,6.342,6.342,0,0,1,.7.037l-.142,1.368a3.841,3.841,0,0,0-.493-.027,2.837,2.837,0,0,0-1.141.208,9.125,9.125,0,0,0-.044.918l-.01,4.433Z" transform="translate(-452.896 -355.575)"/>
          <path id="Caminho_4054" data-name="Caminho 4054" d="M531.437,362.746a1.965,1.965,0,0,1,1.9-2.173,18.659,18.659,0,0,1,2.2-.168c0-.789-.364-1.147-1.258-1.148a20.23,20.23,0,0,0-2.425.171l-.135-1.268a16.12,16.12,0,0,1,2.693-.256c1.53,0,2.8.433,2.8,2.207l-.007,2.9c0,.464-.021.861-.061,1.3a6.073,6.073,0,0,1-3.068.627c-1.9,0-2.642-.739-2.639-2.187m4.1-1.226a9.625,9.625,0,0,0-1.585.15c-.6.141-.833.336-.834,1.056s.415.911,1.162.912a3.185,3.185,0,0,0,1.21-.181,8.618,8.618,0,0,0,.045-.919Z" transform="translate(-475.539 -355.626)"/>
          <path id="Caminho_4055" data-name="Caminho 4055" d="M579.992,342.308l1.711,0-.017,7.65c0,.466-.021.861-.06,1.3a5.753,5.753,0,0,1-2.765.629c-2.288-.005-3.246-.834-3.24-3.524.005-2.653.943-3.511,3.054-3.507a6.553,6.553,0,0,1,1.311.148Zm-.968,3.9c-1.642,0-1.681.918-1.685,2.165,0,1.118.061,2.179,1.526,2.182a2.843,2.843,0,0,0,1.067-.178,8.926,8.926,0,0,0,.044-.918l.008-3.1a3.465,3.465,0,0,0-.96-.152" transform="translate(-512.544 -342.564)"/>
          <path id="Caminho_4056" data-name="Caminho 4056" d="M622.03,361.608c.006-2.483.79-3.512,3.087-3.507,2.5,0,3.018,1.316,3.013,3.389,0,.181-.008.366-.025.55-.783.14-2.3.286-3.249.336l-1.129.055c.06,1.068.628,1.332,1.619,1.333a19.632,19.632,0,0,0,2.474-.176l.14,1.288a17.382,17.382,0,0,1-3,.255c-2.328,0-2.934-1.494-2.93-3.523m2.829-.4c.447-.022,1.141-.078,1.542-.132a2.133,2.133,0,0,0,.016-.273c0-.9-.333-1.393-1.3-1.394-1.259,0-1.431.781-1.433,1.853Z" transform="translate(-551.412 -355.791)"/>
          <path id="Caminho_4057" data-name="Caminho 4057" d="M668.769,360.1c0,.6.711.7,1.269.895,1.144.39,2.1.623,2.1,2.153,0,1.622-1.19,2.069-2.709,2.067a10.4,10.4,0,0,1-2.447-.3l.165-1.268a12.105,12.105,0,0,0,1.869.211c.519,0,1.39.022,1.391-.654,0-.65-.611-.712-1.18-.887-1.071-.329-2.157-.67-2.154-2.145,0-1.546,1.088-1.989,2.46-1.986a10.245,10.245,0,0,1,2.515.29l-.164,1.244a8.9,8.9,0,0,0-1.742-.2c-.544,0-1.368,0-1.369.585" transform="translate(-589.057 -355.863)"/>
          <path id="Caminho_4058" data-name="Caminho 4058" d="M711.024,365.047a9.154,9.154,0,0,1-2.247.257c-2.3-.005-2.652-1.751-2.648-3.585,0-2.24.536-3.452,3.059-3.446a6.129,6.129,0,0,1,1.838.265l-.141,1.253a6.515,6.515,0,0,0-1.244-.16c-1.6,0-1.778.469-1.781,2.092,0,1.533.064,2.19,1.787,2.2a6.211,6.211,0,0,0,1.229-.159Z" transform="translate(-621.847 -355.935)"/>
          <path id="Caminho_4059" data-name="Caminho 4059" d="M742.658,361.86c.005-2.553.824-3.512,3.081-3.507s3.077,1,3.072,3.52-.824,3.516-3.086,3.512-3.073-.964-3.067-3.524m4.442.009c0-1.656-.28-2.141-1.363-2.144s-1.357.427-1.361,2.138.272,2.141,1.351,2.143,1.369-.473,1.372-2.138" transform="translate(-652.44 -356.002)"/>
        </g>
      </g>
    </g>
  </g>
</svg>
