<svg xmlns="http://www.w3.org/2000/svg" xmlns:xlink="http://www.w3.org/1999/xlink" width="135" height="77" viewBox="0 0 135 77">
  <defs>
    <clipPath id="clip-path">
      <rect id="Ret칙ngulo_3021" data-name="Ret칙ngulo 3021" width="135" height="77" transform="translate(-0.218 0.337)" fill="none" stroke="#f04f4f" stroke-width="1"/>
    </clipPath>
  </defs>
  <g id="Grupo_de_m치scara_260" data-name="Grupo de m치scara 260" transform="translate(0.218 -0.337)" clip-path="url(#clip-path)">
    <g id="Grupo_9292" data-name="Grupo 9292" transform="translate(18.187 30.066)">
      <g id="Grupo_9291" data-name="Grupo 9291" transform="translate(0)">
        <g id="Grupo_9287" data-name="Grupo 9287" transform="translate(49.691 0.384)">
          <path id="Caminho_4070" data-name="Caminho 4070" d="M1963.419-648.16a2.6,2.6,0,0,1-2.493-2.624v-10.769a.115.115,0,0,0-.214-.06l-2.722,4.513a4.374,4.374,0,0,1-3.726,2.1,4.376,4.376,0,0,1-3.726-2.1l-2.723-4.514a.115.115,0,0,0-.214.06v10.769a2.6,2.6,0,0,1-2.493,2.624,2.541,2.541,0,0,1-2.588-2.54v-14.359a4.226,4.226,0,0,1,4.221-4.221,4.243,4.243,0,0,1,3.615,2.041l3.809,6.315a.115.115,0,0,0,.2,0l3.753-6.221a4.334,4.334,0,0,1,3.455-2.13,4.226,4.226,0,0,1,4.438,4.216V-650.7A2.541,2.541,0,0,1,1963.419-648.16Z" transform="translate(-1942.52 669.28)" fill="#060607"/>
        </g>
        <g id="Grupo_9288" data-name="Grupo 9288" transform="translate(0 0.384)">
          <path id="Caminho_4071" data-name="Caminho 4071" d="M1768.117-648.16a2.6,2.6,0,0,1-2.493-2.624v-10.769a.116.116,0,0,0-.215-.06l-2.722,4.513a4.373,4.373,0,0,1-3.726,2.1,4.376,4.376,0,0,1-3.726-2.1l-2.722-4.514a.115.115,0,0,0-.214.06v10.769a2.6,2.6,0,0,1-2.493,2.624,2.541,2.541,0,0,1-2.589-2.54v-14.359a4.226,4.226,0,0,1,4.222-4.221,4.243,4.243,0,0,1,3.615,2.041l3.809,6.315a.115.115,0,0,0,.2,0l3.753-6.221a4.332,4.332,0,0,1,3.455-2.13,4.225,4.225,0,0,1,4.438,4.216V-650.7A2.541,2.541,0,0,1,1768.117-648.16Z" transform="translate(-1747.217 669.28)" fill="#060607"/>
        </g>
        <g id="Grupo_9289" data-name="Grupo 9289" transform="translate(26.664 0.615)">
          <path id="Caminho_4072" data-name="Caminho 4072" d="M1861.942-647.1a9.937,9.937,0,0,1-9.926-9.925v-8.808a2.541,2.541,0,0,1,2.54-2.54,2.54,2.54,0,0,1,2.54,2.54v8.808a4.85,4.85,0,0,0,4.845,4.844,4.85,4.85,0,0,0,4.844-4.844v-8.808a2.541,2.541,0,0,1,2.541-2.54,2.54,2.54,0,0,1,2.54,2.54v8.808A9.936,9.936,0,0,1,1861.942-647.1Z" transform="translate(-1852.017 668.372)" fill="#060607"/>
        </g>
        <g id="Grupo_9290" data-name="Grupo 9290" transform="translate(75.719)">
          <path id="Caminho_4073" data-name="Caminho 4073" d="M2055.766-648.9a10.957,10.957,0,0,1-10.945-10.945,10.957,10.957,0,0,1,10.945-10.944,10.957,10.957,0,0,1,10.945,10.944A10.957,10.957,0,0,1,2055.766-648.9Zm0-16.808a5.87,5.87,0,0,0-5.863,5.863,5.87,5.87,0,0,0,5.863,5.864,5.87,5.87,0,0,0,5.864-5.864A5.87,5.87,0,0,0,2055.766-665.708Z" transform="translate(-2044.821 670.789)" fill="#060607"/>
        </g>
      </g>
    </g>
  </g>
</svg>
