<svg xmlns="http://www.w3.org/2000/svg" width="189.714" height="42.544" viewBox="0 0 189.714 42.544">
  <g id="Grupo_9316" data-name="Grupo 9316" transform="translate(-11987.217 7751.32)">
    <g id="Grupo_20" data-name="Grupo 20" transform="translate(12083.797 -7750.574)">
      <path id="Caminho_9" data-name="Caminho 9" d="M1983.141-628.23a5.046,5.046,0,0,1-4.846-5.1v-20.931a.224.224,0,0,0-.416-.116l-5.292,8.773a8.5,8.5,0,0,1-7.242,4.089,8.5,8.5,0,0,1-7.242-4.089l-5.292-8.773a.225.225,0,0,0-.417.116v20.931a5.045,5.045,0,0,1-4.845,5.1,4.938,4.938,0,0,1-5.03-4.937v-27.909a8.214,8.214,0,0,1,8.2-8.2,8.246,8.246,0,0,1,7.025,3.968l7.4,12.275a.225.225,0,0,0,.385,0l7.293-12.092a8.424,8.424,0,0,1,6.715-4.139,8.213,8.213,0,0,1,8.626,8.194v27.909A4.938,4.938,0,0,1,1983.141-628.23Z" transform="translate(-1942.52 669.28)" fill="#fb6253"/>
    </g>
    <g id="Grupo_21" data-name="Grupo 21" transform="translate(11987.217 -7750.574)">
      <path id="Caminho_10" data-name="Caminho 10" d="M1787.838-628.23a5.045,5.045,0,0,1-4.845-5.1v-20.931a.225.225,0,0,0-.417-.116l-5.291,8.773a8.5,8.5,0,0,1-7.242,4.089,8.5,8.5,0,0,1-7.242-4.089l-5.292-8.773a.224.224,0,0,0-.416.116v20.931a5.046,5.046,0,0,1-4.845,5.1,4.938,4.938,0,0,1-5.031-4.937v-27.909a8.214,8.214,0,0,1,8.2-8.2,8.246,8.246,0,0,1,7.025,3.968l7.4,12.275a.225.225,0,0,0,.385,0l7.293-12.092a8.422,8.422,0,0,1,6.715-4.139,8.213,8.213,0,0,1,8.625,8.194v27.909A4.938,4.938,0,0,1,1787.838-628.23Z" transform="translate(-1747.217 669.28)" fill="#fb6253"/>
    </g>
    <g id="Grupo_22" data-name="Grupo 22" transform="translate(12039.042 -7750.125)">
      <path id="Caminho_11" data-name="Caminho 11" d="M1871.308-627.023a19.313,19.313,0,0,1-19.291-19.291v-17.12a4.938,4.938,0,0,1,4.938-4.937,4.937,4.937,0,0,1,4.937,4.938v17.12a9.426,9.426,0,0,0,9.416,9.416,9.427,9.427,0,0,0,9.416-9.416v-17.12a4.938,4.938,0,0,1,4.937-4.937,4.938,4.938,0,0,1,4.938,4.938v17.12A19.313,19.313,0,0,1,1871.308-627.023Z" transform="translate(-1852.017 668.372)" fill="#fb6253"/>
    </g>
    <g id="Grupo_23" data-name="Grupo 23" transform="translate(12134.387 -7751.32)">
      <path id="Caminho_12" data-name="Caminho 12" d="M2066.093-628.246a21.3,21.3,0,0,1-21.272-21.272,21.3,21.3,0,0,1,21.272-21.272,21.3,21.3,0,0,1,21.271,21.272A21.3,21.3,0,0,1,2066.093-628.246Zm0-32.668a11.409,11.409,0,0,0-11.4,11.4,11.409,11.409,0,0,0,11.4,11.4,11.41,11.41,0,0,0,11.4-11.4A11.409,11.409,0,0,0,2066.093-660.914Z" transform="translate(-2044.821 670.789)" fill="#fb6253"/>
    </g>
  </g>
</svg>
