<svg xmlns="http://www.w3.org/2000/svg" xmlns:xlink="http://www.w3.org/1999/xlink" width="147" height="147" viewBox="0 0 147 147">
  <defs>
    <clipPath id="clip-path">
      <rect id="Ret칙ngulo_2986" data-name="Ret칙ngulo 2986" width="147" height="147" transform="translate(1281 508)" fill="none" stroke="#707070" stroke-width="1"/>
    </clipPath>
  </defs>
  <g id="Grupo_de_m치scara_252" data-name="Grupo de m치scara 252" transform="translate(-1281 -508)" clip-path="url(#clip-path)">
    <g id="Grupo_5440" data-name="Grupo 5440" transform="translate(0 141)">
      <path id="Caminho_3815" data-name="Caminho 3815" d="M266.988,1308.129v-8.486a8.451,8.451,0,0,0-7.388-8.371v-.625a40.134,40.134,0,0,0-40.046-40.088h-.041a40.133,40.133,0,0,0-40.046,40.088v.625a8.451,8.451,0,0,0-7.388,8.371v12.927a8.454,8.454,0,0,0,8.359,8.529h.087a8.435,8.435,0,0,0,6.917-3.616,33.945,33.945,0,0,0,6.432,10.983,1.037,1.037,0,0,0,.14.161,33.839,33.839,0,0,0,25.409,11.485h0a33.979,33.979,0,0,0,32.053-22.836,8.439,8.439,0,0,0,6.978,3.824h.087a8.453,8.453,0,0,0,8.443-8.355C266.99,1312.693,266.99,1308.166,266.988,1308.129Zm-71.96,18.44a31.744,31.744,0,0,1-6.283-12,8.408,8.408,0,0,0,.225-1.837v-5.7h11.546A48.794,48.794,0,0,0,204,1323.3,58.247,58.247,0,0,0,195.029,1326.569Zm9.043-37.907a48.438,48.438,0,0,0-3.553,16.252H188.97v-5.271a8.386,8.386,0,0,0-.215-1.87,31.748,31.748,0,0,1,6.543-12.279A58.232,58.232,0,0,0,204.072,1288.662Zm-7.265-4.813a31.758,31.758,0,0,1,17.722-9.092,30.747,30.747,0,0,0-9.578,11.947A56.112,56.112,0,0,1,196.807,1283.848Zm-.291,44.373a55.964,55.964,0,0,1,8.351-2.961,30.654,30.654,0,0,0,10.03,12.41A31.746,31.746,0,0,1,196.516,1328.221Zm21.854,9.1a27.193,27.193,0,0,1-11.443-12.584,56.37,56.37,0,0,1,11.443-1.354Zm0-16.052a58.549,58.549,0,0,0-12.328,1.513,46.532,46.532,0,0,1-3.413-15.752H218.37Zm0-16.353H202.632a46.183,46.183,0,0,1,3.482-15.738,58.635,58.635,0,0,0,12.257,1.5Zm0-16.354a56.514,56.514,0,0,1-11.357-1.337,27.127,27.127,0,0,1,11.357-12.364Zm15.518-1.854a30.753,30.753,0,0,0-9.568-11.951,31.757,31.757,0,0,1,17.726,9.093A55.759,55.759,0,0,1,233.888,1286.706Zm9.667-1.213a31.752,31.752,0,0,1,6.673,12.734,8.489,8.489,0,0,0-.128,1.417v5.271H238.333a48.855,48.855,0,0,0-3.566-16.25A57.946,57.946,0,0,0,243.555,1285.493Zm-11.727,1.732a56.471,56.471,0,0,1-11.344,1.335v-13.7A27.109,27.109,0,0,1,231.828,1287.225Zm.9,1.954a46.593,46.593,0,0,1,3.495,15.734H220.484v-14.24A58.562,58.562,0,0,0,232.724,1289.18Zm3.5,17.848a46.1,46.1,0,0,1-3.4,15.758,58.527,58.527,0,0,0-12.34-1.52v-14.239Zm-4.289,17.715a27.224,27.224,0,0,1-11.455,12.576v-13.938A56.324,56.324,0,0,1,231.939,1324.743Zm-7.978,12.926A30.688,30.688,0,0,0,234,1325.262a56.023,56.023,0,0,1,8.336,2.957A31.76,31.76,0,0,1,223.961,1337.669Zm19.869-11.1a58.14,58.14,0,0,0-8.963-3.265,48.38,48.38,0,0,0,3.475-16.272H250.1v5.542a8.411,8.411,0,0,0,.135,1.558A31.743,31.743,0,0,1,243.829,1326.565Zm13.657-35.292a8.448,8.448,0,0,0-6.023,3.783,33.927,33.927,0,0,0-6.826-11.536.986.986,0,0,0-.1-.113,33.842,33.842,0,0,0-24.449-11.125c-.083-.038-.155-.086-.238-.123a.059.059,0,0,0-.021,0,1.036,1.036,0,0,0-.252-.058,1.064,1.064,0,0,0-.155-.027.918.918,0,0,0-.156.028,1.067,1.067,0,0,0-.251.055c-.007,0-.015,0-.022.005-.082.037-.155.084-.238.123a33.837,33.837,0,0,0-24.445,11.123,1.169,1.169,0,0,0-.112.128,33.964,33.964,0,0,0-6.74,11.306,8.442,8.442,0,0,0-5.88-3.566v-.625a37.952,37.952,0,1,1,75.9,0Z" transform="translate(1135.419 -854.497)" fill="#fff"/>
    </g>
  </g>
</svg>
