<svg xmlns="http://www.w3.org/2000/svg" xmlns:xlink="http://www.w3.org/1999/xlink" width="147" height="147" viewBox="0 0 147 147">
  <defs>
    <clipPath id="clip-path">
      <rect id="Ret칙ngulo_2982" data-name="Ret칙ngulo 2982" width="147" height="147" transform="translate(500 508)" fill="none" stroke="#707070" stroke-width="1"/>
    </clipPath>
  </defs>
  <g id="Grupo_de_m치scara_238" data-name="Grupo de m치scara 238" transform="translate(-500 -508)" clip-path="url(#clip-path)">
    <g id="Grupo_5437" data-name="Grupo 5437" transform="translate(6 123)">
      <path id="Caminho_3824" data-name="Caminho 3824" d="M196.913,1160.1a10.289,10.289,0,0,0,10.277-10.277v-35.8a.185.185,0,0,1,.184-.185h30.894a.186.186,0,0,1,.185.184V1143.6a10.259,10.259,0,1,0,2.114,6.22v-35.8a2.3,2.3,0,0,0-2.3-2.3H207.374a2.3,2.3,0,0,0-2.3,2.3v29.582a10.27,10.27,0,1,0-8.163,16.494Z" transform="translate(353.883 -704.557)" fill="#fff"/>
      <path id="Caminho_3823" data-name="Caminho 3823" d="M264.152,1173.762a7.8,7.8,0,0,0-10.589-3.2,116.725,116.725,0,0,1-16.217,7.3,10.231,10.231,0,0,0,2.293-6.34,10.5,10.5,0,0,0-.053-1.173c-.305-2.442-1.582-2.807-2.316-2.807-7.791,0-12.895-2.213-17.833-4.354-7.583-3.291-14.747-6.4-29.892-1.212a2.846,2.846,0,0,0-.909.538,2.944,2.944,0,0,0-1.776-.6H174.333a2.762,2.762,0,0,0-2.847,2.661v27.31a2.764,2.764,0,0,0,2.847,2.664H186.86a2.921,2.921,0,0,0,2.1-.881,2.881,2.881,0,0,0,1.192.432l30.362,3.607a20.959,20.959,0,0,0,3.336.254,36.861,36.861,0,0,0,15.663-3.918l21.347-9.783A7.781,7.781,0,0,0,264.152,1173.762Zm-76.558-9.048v27.172c0,.3-.337.55-.735.55H174.333c-.4,0-.733-.251-.733-.55v-27.31c0-.3.336-.548.733-.548H186.86c.4,0,.735.252.735.548Zm72.339,17.646-21.346,9.783c-4.483,2.333-11.938,4.418-17.777,3.471L190.4,1192a.791.791,0,0,1-.7-.784v-26.507a.785.785,0,0,1,.526-.741,42.425,42.425,0,0,1,13.731-2.659c5.846,0,10.049,1.822,14.632,3.811,5.135,2.227,10.39,4.544,18.6,4.5,0,0,.19.181.288.959a8.1,8.1,0,0,1,.04.913,8.179,8.179,0,0,1-8.179,8.064h-13.13a1.057,1.057,0,0,0,0,2.114l13.022,0,.279,0c.174,0,.349-.011.521-.021,8.727-.509,23.892-8.878,24.616-9.277a5.648,5.648,0,0,1,5.28,9.986Z" transform="translate(349.014 -689.301)" fill="#fff"/>
    </g>
  </g>
</svg>
