<svg xmlns="http://www.w3.org/2000/svg" xmlns:xlink="http://www.w3.org/1999/xlink" width="147" height="147" viewBox="0 0 147 147">
  <defs>
    <clipPath id="clip-path">
      <rect id="Ret칙ngulo_2984" data-name="Ret칙ngulo 2984" width="147" height="147" transform="translate(756 508)" fill="none" stroke="#707070" stroke-width="1"/>
    </clipPath>
  </defs>
  <g id="Grupo_de_m치scara_239" data-name="Grupo de m치scara 239" transform="translate(-756 -508)" clip-path="url(#clip-path)">
    <g id="Grupo_5438" data-name="Grupo 5438" transform="translate(0 123)">
      <g id="Grupo_5436" data-name="Grupo 5436" transform="translate(-512.5 -3933)">
        <path id="Caminho_3813" data-name="Caminho 3813" d="M203.127,1447.985h-9.379a.816.816,0,0,1-.815-.815v-75.5a.816.816,0,0,1,.815-.815h40.282a.817.817,0,0,1,.817.815v26.363a1.056,1.056,0,1,0,2.113,0v-26.363a2.933,2.933,0,0,0-2.929-2.929H193.748a2.933,2.933,0,0,0-2.929,2.929v75.5a2.932,2.932,0,0,0,2.929,2.929h9.379a1.057,1.057,0,1,0,0-2.114Z" transform="translate(1116.181 2971.433)" fill="#fff"/>
        <path id="Caminho_3814" data-name="Caminho 3814" d="M252.111,1410.089a5.861,5.861,0,0,0-3.808,1.408,6.486,6.486,0,0,0-5.955-5.7l-.135-.008a6.365,6.365,0,0,0-5.194,2.26,6.452,6.452,0,0,0-4.992-3.611,7,7,0,0,0-6.6,2.462l-1.364-15.211a4.566,4.566,0,0,0-2.234-8.556h-20a4.58,4.58,0,0,0,0,9.161h9.921c.007.119-.005.229.005.35l2.754,32.646c-1.681,1.983-9.1,11.563-3.076,19.708,2.126,2.874,8.474,9.026,10.012,10.5v9.652a1.057,1.057,0,1,0,2.114,0V1454.6l-.328-.312c-.078-.074-7.832-7.482-10.1-10.544-4.067-5.5-.519-12.172,1.731-15.417l.92,7.546a1.057,1.057,0,0,0,2.1-.257l-1.23-10.1,0-.009-2.787-33.045c-.005-.054,0-.112-.007-.168-.126-1.88.4-4.157,3.494-4.713a3.694,3.694,0,0,1,2.927.473,5.17,5.17,0,0,1,1.665,3.628l.054.594,1.446,16.125c0,.017-.007.033-.005.052l.152,1.578.492,5.483.026-.078.222,2.31a1.055,1.055,0,0,0,1.05.955c.034,0,.069,0,.1,0a1.058,1.058,0,0,0,.953-1.153l-.662-6.889c1.143-3.124,3.05-4.428,6.009-4.12a4.327,4.327,0,0,1,3.757,4.353v.98h0v3.69a1.057,1.057,0,0,0,2.114,0v-3.667a4.276,4.276,0,0,1,4.544-3.985,4.384,4.384,0,0,1,4.046,4.376l0,3.343v1.178a1.056,1.056,0,1,0,2.113,0v-1.125a3.778,3.778,0,0,1,3.733-3.477,3.67,3.67,0,0,1,3.586,3.743c0,.078-.005.157-.015.268l-1.8,30.639a.474.474,0,0,1-.066.208l-4.175,6.76v10.4a1.057,1.057,0,0,0,2.114,0v-9.8l3.86-6.252a2.6,2.6,0,0,0,.378-1.172l1.793-30.627c.012-.123.018-.249.021-.374A5.792,5.792,0,0,0,252.111,1410.089Z" transform="translate(1118.246 2976.058)" fill="#fff"/>
      </g>
    </g>
  </g>
</svg>
