<svg xmlns="http://www.w3.org/2000/svg" xmlns:xlink="http://www.w3.org/1999/xlink" width="147" height="147" viewBox="0 0 147 147">
  <defs>
    <clipPath id="clip-path">
      <rect id="Ret칙ngulo_2985" data-name="Ret칙ngulo 2985" width="147" height="147" transform="translate(1024 508)" fill="none" stroke="#707070" stroke-width="1"/>
    </clipPath>
  </defs>
  <g id="Grupo_de_m치scara_240" data-name="Grupo de m치scara 240" transform="translate(-1024 -508)" clip-path="url(#clip-path)">
    <g id="Grupo_5439" data-name="Grupo 5439" transform="translate(0 123)">
      <path id="Caminho_3816" data-name="Caminho 3816" d="M219,1547.306v-17.083h3.2a1.057,1.057,0,1,0,0-2.114h-3.577a1.74,1.74,0,0,0-1.738,1.738v13.327a5.091,5.091,0,0,0-3.026-1.006,5.139,5.139,0,1,0,5.14,5.138Z" transform="translate(882.602 -1080.26)" fill="#fff"/>
      <path id="Caminho_3817" data-name="Caminho 3817" d="M228.468,1538.2h-3.574a1.738,1.738,0,0,0-1.736,1.736v13.328a5.092,5.092,0,0,0-3.026-1.007,5.14,5.14,0,1,0,5.14,5.14v-17.085h3.2a1.056,1.056,0,1,0,0-2.113Z" transform="translate(884.617 -1077.016)" fill="#fff"/>
      <path id="Caminho_3818" data-name="Caminho 3818" d="M213.941,1550.554h0a1.057,1.057,0,0,0-1.057,1.056A11.419,11.419,0,0,1,201.476,1563h-.013a11.426,11.426,0,0,1-11.393-11.394,1.058,1.058,0,0,0-1.057-1.056h0a1.057,1.057,0,0,0-1.056,1.058,13.538,13.538,0,0,0,12.463,13.451v2.331H194.15a1.056,1.056,0,1,0,0,2.113H208.8a1.056,1.056,0,1,0,0-2.113h-6.268v-2.331A13.532,13.532,0,0,0,215,1551.612,1.057,1.057,0,0,0,213.941,1550.554Z" transform="translate(875.929 -1073.048)" fill="#fff"/>
      <path id="Caminho_3819" data-name="Caminho 3819" d="M200.224,1566.427h.071a8.421,8.421,0,0,0,8.314-8.323v-15.4a8.383,8.383,0,1,0-16.765,0v15.413a8.382,8.382,0,0,0,8.38,8.314Zm-6.266-23.727a6.268,6.268,0,1,1,12.537,0v15.395a6.3,6.3,0,0,1-6.217,6.218,6.155,6.155,0,0,1-4.448-1.8,6.224,6.224,0,0,1-1.872-4.409Z" transform="translate(877.179 -1078.265)" fill="#fff"/>
      <path id="Caminho_3820" data-name="Caminho 3820" d="M248.889,1518.453h-69.51a2.313,2.313,0,0,0-2.31,2.31v69.508a2.313,2.313,0,0,0,2.31,2.31h69.51a2.312,2.312,0,0,0,2.31-2.31v-69.508A2.312,2.312,0,0,0,248.889,1518.453Zm.2,71.818a.2.2,0,0,1-.2.2h-69.51a.2.2,0,0,1-.2-.2v-69.508a.2.2,0,0,1,.2-.2h69.51a.2.2,0,0,1,.2.2Z" transform="translate(872.431 -1083.362)" fill="#fff"/>
      <path id="Caminho_3821" data-name="Caminho 3821" d="M256.894,1510.387h-69.67A2.244,2.244,0,0,0,185,1512.62v4.457a1.057,1.057,0,1,0,2.114,0v-4.454a.122.122,0,0,1,.119-.121h69.659a.124.124,0,0,1,.124.119v69.661a.123.123,0,0,1-.119.12h-5.3a1.057,1.057,0,0,0,0,2.114h5.3a2.241,2.241,0,0,0,2.23-2.233v-69.666A2.243,2.243,0,0,0,256.894,1510.387Z" transform="translate(874.978 -1085.954)" fill="#fff"/>
      <path id="Caminho_3822" data-name="Caminho 3822" d="M264.821,1502.323H195.153a2.241,2.241,0,0,0-2.23,2.232v6.131a1.057,1.057,0,1,0,2.114,0v-6.128a.123.123,0,0,1,.119-.12h69.662a.121.121,0,0,1,.12.118v69.662a.122.122,0,0,1-.118.121h-3.586a1.056,1.056,0,1,0,0,2.113h3.59a2.241,2.241,0,0,0,2.228-2.232v-69.667A2.24,2.24,0,0,0,264.821,1502.323Z" transform="translate(877.525 -1088.545)" fill="#fff"/>
    </g>
  </g>
</svg>
