<svg xmlns="http://www.w3.org/2000/svg" xmlns:xlink="http://www.w3.org/1999/xlink" width="113" height="113" viewBox="0 0 113 113">
  <defs>
    <linearGradient id="linear-gradient" y1="0.5" x2="1" y2="0.5" gradientUnits="objectBoundingBox">
      <stop offset="0" stop-color="#fb724b"/>
      <stop offset="1" stop-color="#fb545a"/>
    </linearGradient>
    <filter id="Caminho_17" x="17.908" y="51.849" width="47.107" height="44.173" filterUnits="userSpaceOnUse">
      <feOffset dy="3" input="SourceAlpha"/>
      <feGaussianBlur stdDeviation="3" result="blur"/>
      <feFlood flood-color="#48210c" flood-opacity="0.251"/>
      <feComposite operator="in" in2="blur"/>
      <feComposite in="SourceGraphic"/>
    </filter>
    <filter id="Caminho_18" x="17.908" y="21.575" width="47.107" height="44.173" filterUnits="userSpaceOnUse">
      <feOffset dy="3" input="SourceAlpha"/>
      <feGaussianBlur stdDeviation="3" result="blur-2"/>
      <feFlood flood-color="#48210c" flood-opacity="0.251"/>
      <feComposite operator="in" in2="blur-2"/>
      <feComposite in="SourceGraphic"/>
    </filter>
    <filter id="Caminho_19" x="50.131" y="21.861" width="42.6" height="44.363" filterUnits="userSpaceOnUse">
      <feOffset dy="3" input="SourceAlpha"/>
      <feGaussianBlur stdDeviation="3" result="blur-3"/>
      <feFlood flood-color="#48210c" flood-opacity="0.251"/>
      <feComposite operator="in" in2="blur-3"/>
      <feComposite in="SourceGraphic"/>
    </filter>
    <filter id="Caminho_20" x="49.04" y="51.373" width="45.125" height="45.125" filterUnits="userSpaceOnUse">
      <feOffset dy="3" input="SourceAlpha"/>
      <feGaussianBlur stdDeviation="3" result="blur-4"/>
      <feFlood flood-color="#48210c" flood-opacity="0.251"/>
      <feComposite operator="in" in2="blur-4"/>
      <feComposite in="SourceGraphic"/>
    </filter>
  </defs>
  <g id="Grupo_5414" data-name="Grupo 5414" transform="translate(5484.5 -927.5)">
    <g id="Grupo_5413" data-name="Grupo 5413" transform="translate(-5484.5 927.5)">
      <rect id="Mask" width="113" height="113" rx="25" fill="url(#linear-gradient)"/>
      <g id="Grupo_5411" data-name="Grupo 5411" transform="translate(26.908 27.575)">
        <g id="Grupo_28" data-name="Grupo 28" transform="translate(0 30.274)">
          <g transform="matrix(1, 0, 0, 1, -26.91, -57.85)" filter="url(#Caminho_17)">
            <path id="Caminho_17-2" data-name="Caminho 17" d="M1614.939,1388.226a3.216,3.216,0,0,1-3.089-3.252v-13.345a.143.143,0,0,0-.266-.074l-3.374,5.593a5.393,5.393,0,0,1-9.235,0l-3.374-5.594a.143.143,0,0,0-.266.074v13.345a3.216,3.216,0,0,1-3.089,3.252,3.148,3.148,0,0,1-3.207-3.148v-17.794a5.231,5.231,0,0,1,9.71-2.7l4.72,7.826a.143.143,0,0,0,.245,0l4.651-7.71a5.37,5.37,0,0,1,4.281-2.639,5.236,5.236,0,0,1,5.5,5.224v17.794A3.148,3.148,0,0,1,1614.939,1388.226Z" transform="translate(-1562.13 -1304.2)" fill="#fff"/>
          </g>
        </g>
        <g id="Grupo_29" data-name="Grupo 29">
          <g transform="matrix(1, 0, 0, 1, -26.91, -27.58)" filter="url(#Caminho_18)">
            <path id="Caminho_18-2" data-name="Caminho 18" d="M1614.939,1251.226a3.217,3.217,0,0,1-3.089-3.252v-13.345a.143.143,0,0,0-.266-.074l-3.374,5.593a5.392,5.392,0,0,1-9.235,0l-3.374-5.594a.143.143,0,0,0-.266.074v13.345a3.217,3.217,0,0,1-3.089,3.252,3.148,3.148,0,0,1-3.207-3.147v-17.794a5.231,5.231,0,0,1,9.71-2.7l4.72,7.826a.143.143,0,0,0,.245,0l4.651-7.71a5.37,5.37,0,0,1,4.281-2.639,5.236,5.236,0,0,1,5.5,5.224v17.794A3.148,3.148,0,0,1,1614.939,1251.226Z" transform="translate(-1562.13 -1197.48)" fill="#fff"/>
          </g>
        </g>
        <g id="Grupo_30" data-name="Grupo 30" transform="translate(32.223 0.286)">
          <g transform="matrix(1, 0, 0, 1, -59.13, -27.86)" filter="url(#Caminho_19)">
            <path id="Caminho_19-2" data-name="Caminho 19" d="M1747.162,1252.711a12.314,12.314,0,0,1-12.3-12.3V1229.5a3.148,3.148,0,0,1,6.3,0v10.915a6,6,0,1,0,12.007,0V1229.5a3.148,3.148,0,0,1,6.3,0v10.915A12.314,12.314,0,0,1,1747.162,1252.711Z" transform="translate(-1675.73 -1198.49)" fill="#fff"/>
          </g>
        </g>
        <g id="Grupo_31" data-name="Grupo 31" transform="translate(31.133 29.798)">
          <g transform="matrix(1, 0, 0, 1, -58.04, -57.37)" filter="url(#Caminho_20)">
            <path id="Caminho_20-2" data-name="Caminho 20" d="M1743.49,1387.024a13.563,13.563,0,1,1,13.563-13.562A13.578,13.578,0,0,1,1743.49,1387.024Zm0-20.829a7.266,7.266,0,1,0,7.266,7.266A7.274,7.274,0,0,0,1743.49,1366.2Z" transform="translate(-1671.89 -1302.53)" fill="#fff"/>
          </g>
        </g>
      </g>
    </g>
  </g>
</svg>
