<svg xmlns="http://www.w3.org/2000/svg" width="195" height="195" viewBox="0 0 195 195">
  <g id="Grupo_9282" data-name="Grupo 9282" transform="translate(593.449 1188.833)">
    <rect id="Retângulo_3007" data-name="Retângulo 3007" width="195" height="195" transform="translate(-593.449 -1188.833)" fill="#070607"/>
    <g id="Grupo_9270" data-name="Grupo 9270" transform="translate(-567.223 -1140.654)">
      <path id="Caminho_4019" data-name="Caminho 4019" d="M-526.373-1042.336l2.44-1.423c1.017,3.416,3.7,5.612,8.174,5.612,4.31,0,6.709-2.074,6.709-5.124,0-3.294-2.805-4.351-6.994-5.734-4.636-1.545-9.109-2.765-9.109-8.01,0-5,4.026-7.807,8.743-7.807a10,10,0,0,1,9.393,6.14l-2.4,1.342a7.2,7.2,0,0,0-6.994-4.717c-3.416,0-5.9,1.789-5.9,4.92,0,3.09,2.44,4.067,6.3,5.327,5.164,1.708,9.8,3.172,9.8,8.458,0,4.879-3.9,7.97-9.6,7.97C-521.046-1035.382-524.909-1038.025-526.373-1042.336Z" transform="translate(526.373 1064.823)" fill="#fff"/>
      <path id="Caminho_4020" data-name="Caminho 4020" d="M-463.351-1044.788v-18.787h2.847v18.787c0,4.513,2.806,7.4,7.726,7.4s7.727-2.888,7.727-7.4v-18.787h2.846v18.787c0,6.221-4.351,10.166-10.573,10.166S-463.351-1038.567-463.351-1044.788Z" transform="translate(487.992 1064.063)" fill="#fff"/>
      <path id="Caminho_4021" data-name="Caminho 4021" d="M-374.559-1054.629a8.746,8.746,0,0,1-8.946,8.946h-7.32v10.573h-2.846v-28.465h10.166A8.722,8.722,0,0,1-374.559-1054.629Zm-2.846,0a5.96,5.96,0,0,0-6.1-6.262h-7.32v12.525h7.32A5.983,5.983,0,0,0-377.406-1054.629Z" transform="translate(445.556 1064.063)" fill="#fff"/>
      <path id="Caminho_4022" data-name="Caminho 4022" d="M-315.64-1037.794v2.684h-16.672v-28.465h16.469v2.684h-13.622v10.085h12.606v2.684h-12.606v10.328Z" transform="translate(408.187 1064.063)" fill="#fff"/>
      <path id="Caminho_4023" data-name="Caminho 4023" d="M-266.376-1046.5h-7.97v11.386h-2.847v-28.465h11.386a8.539,8.539,0,0,1,8.54,8.54,8.526,8.526,0,0,1-6.14,8.173l6.954,11.752h-3.253Zm-7.97-2.684h8.539a5.8,5.8,0,0,0,5.693-5.855,5.772,5.772,0,0,0-5.693-5.856h-8.539Z" transform="translate(374.619 1064.063)" fill="#fff"/>
      <path id="Caminho_4024" data-name="Caminho 4024" d="M-503.1-954.629a8.746,8.746,0,0,1-8.946,8.946h-7.32v10.573h-2.846v-28.465h10.166A8.722,8.722,0,0,1-503.1-954.629Zm-2.847,0a5.96,5.96,0,0,0-6.1-6.262h-7.32v12.524h7.32A5.983,5.983,0,0,0-505.948-954.629Z" transform="translate(523.839 1003.162)" fill="#fff"/>
      <path id="Caminho_4025" data-name="Caminho 4025" d="M-444.995-937.794v2.684h-15.859v-28.465h2.847v25.781Z" transform="translate(486.471 1003.162)" fill="#fff"/>
      <path id="Caminho_4026" data-name="Caminho 4026" d="M-395.944-942.1h-13.5l-2.643,6.994H-415.1l10.939-28.465h2.928l10.938,28.465H-393.3Zm-1.016-2.684-5.733-15.249-5.734,15.249Z" transform="translate(458.604 1003.162)" fill="#fff"/>
      <path id="Caminho_4027" data-name="Caminho 4027" d="M-345.843-946.781v11.671h-2.846v-11.752l-10.247-16.713h3.213l8.5,13.948,8.458-13.948h3.213Z" transform="translate(424.402 1003.162)" fill="#fff"/>
      <path id="Caminho_4028" data-name="Caminho 4028" d="M-273.106-937.794v2.684h-16.672v-28.465h16.469v2.684h-13.622v10.085h12.606v2.684h-12.606v10.329Z" transform="translate(382.283 1003.162)" fill="#fff"/>
      <path id="Caminho_4029" data-name="Caminho 4029" d="M-223.841-946.5h-7.97v11.386h-2.846v-28.465h11.386a8.538,8.538,0,0,1,8.539,8.54,8.527,8.527,0,0,1-6.14,8.174l6.954,11.752h-3.253Zm-7.97-2.684h8.54a5.8,5.8,0,0,0,5.693-5.855,5.772,5.772,0,0,0-5.693-5.856h-8.54Z" transform="translate(348.714 1003.162)" fill="#fff"/>
      <path id="Caminho_4030" data-name="Caminho 4030" d="M-506.326-834.94l-2.521-2.724a12.643,12.643,0,0,1-7.36,2.236c-5.856,0-10.166-3.212-10.166-8.58a9.637,9.637,0,0,1,4.554-8.174A8.644,8.644,0,0,1-523-856.695c0-4.8,3.7-8.336,9.149-8.336a9.669,9.669,0,0,1,9.353,6.222l-5.571,3.212c-.732-1.911-1.871-3.09-3.7-3.09a2.47,2.47,0,0,0-2.725,2.4c0,1.586.976,2.643,2.237,4.026l5.246,5.815a21.474,21.474,0,0,0,1.342-4.473l5.449,3.09a20.878,20.878,0,0,1-2.6,5.978l3.578,3.985Zm-6.506-7.076-5.2-5.611-.244-.244a4.01,4.01,0,0,0-1.5,3.172c0,1.911,1.22,3.334,4.107,3.334A5.987,5.987,0,0,0-512.832-842.015Z" transform="translate(526.373 943.147)" fill="#fff"/>
      <path id="Caminho_4031" data-name="Caminho 4031" d="M-461.062-850.229a14.43,14.43,0,0,1,14.8-14.8,14.2,14.2,0,0,1,12.2,6.588l-5.611,3.253a7.359,7.359,0,0,0-6.588-3.5c-5.043,0-8.3,3.375-8.3,8.458s3.253,8.458,8.3,8.458a7.313,7.313,0,0,0,6.588-3.5l5.611,3.253a14.1,14.1,0,0,1-12.2,6.588A14.43,14.43,0,0,1-461.062-850.229Z" transform="translate(486.598 943.147)" fill="#fff"/>
      <path id="Caminho_4032" data-name="Caminho 4032" d="M-388.365-850.229a14.675,14.675,0,0,1,14.8-14.8,14.675,14.675,0,0,1,14.8,14.8,14.675,14.675,0,0,1-14.8,14.8A14.675,14.675,0,0,1-388.365-850.229Zm23.1,0a8.1,8.1,0,0,0-8.3-8.458,8.1,8.1,0,0,0-8.3,8.458,8.1,8.1,0,0,0,8.3,8.458A8.1,8.1,0,0,0-365.268-850.229Z" transform="translate(442.324 943.147)" fill="#fff"/>
      <path id="Caminho_4033" data-name="Caminho 4033" d="M-303.375-861.054h-2.237v5.612h-2.725v-5.612h-2.236v-2.521h7.2Zm9.718-2.521v8.133h-2.6v-4.067l-1.748,2.6h-.244l-1.748-2.6v4.067h-2.6v-8.133h2.6l1.87,2.806,1.87-2.806Z" transform="translate(394.948 942.26)" fill="#fff"/>
    </g>
  </g>
</svg>
