<svg xmlns="http://www.w3.org/2000/svg" width="51.048" height="100.138" viewBox="0 0 51.048 100.138">
  <g id="Grupo_9471" data-name="Grupo 9471" transform="translate(809.087 -1307.382)">
    <g id="Grupo_9458" data-name="Grupo 9458" transform="translate(-809.087 1307.382)">
      <g id="Retângulo_325" data-name="Retângulo 325">
        <path id="Caminho_4206" data-name="Caminho 4206" d="M-762.274,1407.52h-42.579a4.239,4.239,0,0,1-4.235-4.235v-91.668a4.239,4.239,0,0,1,4.235-4.235h42.579a4.24,4.24,0,0,1,4.235,4.235v91.668A4.24,4.24,0,0,1-762.274,1407.52Zm-42.579-98.22a2.319,2.319,0,0,0-2.317,2.317v91.668a2.319,2.319,0,0,0,2.317,2.317h42.579a2.32,2.32,0,0,0,2.317-2.317v-91.668a2.32,2.32,0,0,0-2.317-2.317Z" transform="translate(809.087 -1307.382)" fill="#fff"/>
      </g>
      <g id="Grupo_9436" data-name="Grupo 9436" transform="translate(9.306 27.331)">
        <g id="Elipse_631" data-name="Elipse 631">
          <path id="Caminho_4207" data-name="Caminho 4207" d="M-783.165,1368.314a16.234,16.234,0,0,1-16.217-16.216,16.234,16.234,0,0,1,16.217-16.216A16.234,16.234,0,0,1-766.95,1352.1,16.234,16.234,0,0,1-783.165,1368.314Zm0-30.513a14.314,14.314,0,0,0-14.3,14.3,14.314,14.314,0,0,0,14.3,14.3,14.314,14.314,0,0,0,14.3-14.3A14.314,14.314,0,0,0-783.165,1337.8Z" transform="translate(799.382 -1335.883)" fill="#fff"/>
        </g>
        <g id="Linha_15" data-name="Linha 15" transform="translate(15.234 0.192)">
          <path id="Caminho_4208" data-name="Caminho 4208" d="M-782.537,1368.374a.958.958,0,0,1-.959-.959v-30.373a.958.958,0,0,1,.959-.959.959.959,0,0,1,.959.959v30.373A.959.959,0,0,1-782.537,1368.374Z" transform="translate(783.496 -1336.083)" fill="#fff"/>
        </g>
        <g id="Linha_16" data-name="Linha 16" transform="translate(0.047 15.377)">
          <path id="Caminho_4209" data-name="Caminho 4209" d="M-768,1353.837h-30.373a.958.958,0,0,1-.959-.959.958.958,0,0,1,.959-.959H-768a.959.959,0,0,1,.959.959A.959.959,0,0,1-768,1353.837Z" transform="translate(799.333 -1351.919)" fill="#fff"/>
        </g>
        <g id="Elipse_632" data-name="Elipse 632" transform="translate(7.408 0.046)">
          <path id="Caminho_4210" data-name="Caminho 4210" d="M-782.848,1368.273c-4.938,0-8.809-7.1-8.809-16.172s3.87-16.171,8.809-16.171,8.81,7.1,8.81,16.171S-777.909,1368.273-782.848,1368.273Zm0-30.424c-3.735,0-6.891,6.527-6.891,14.253s3.156,14.254,6.891,14.254,6.892-6.526,6.892-14.254S-779.112,1337.849-782.848,1337.849Z" transform="translate(791.657 -1335.931)" fill="#fff"/>
        </g>
        <g id="Caminho_4130" data-name="Caminho 4130" transform="translate(4.403 4.364)">
          <path id="Caminho_4211" data-name="Caminho 4211" d="M-782.612,1346.219a20.819,20.819,0,0,1-11.825-4.082.958.958,0,0,1-.14-1.347.962.962,0,0,1,1.348-.143c.417.337,10.318,8.146,20.3,0a.961.961,0,0,1,1.349.138.959.959,0,0,1-.137,1.349A16.91,16.91,0,0,1-782.612,1346.219Z" transform="translate(794.791 -1340.434)" fill="#fff"/>
        </g>
        <g id="Caminho_4131" data-name="Caminho 4131" transform="translate(4.406 22.234)">
          <path id="Caminho_4212" data-name="Caminho 4212" d="M-793.828,1364.854a.957.957,0,0,1-.743-.353.96.96,0,0,1,.137-1.35c11.207-9.139,22.61-.093,22.724,0a.96.96,0,0,1,.141,1.348.961.961,0,0,1-1.349.142c-.416-.336-10.319-8.145-20.3,0A.949.949,0,0,1-793.828,1364.854Z" transform="translate(794.787 -1359.069)" fill="#fff"/>
        </g>
      </g>
      <g id="Elipse_635" data-name="Elipse 635" transform="translate(22.422 86.784)">
        <circle id="Elipse_642" data-name="Elipse 642" cx="3.836" cy="3.836" r="3.836" fill="#fff"/>
      </g>
    </g>
  </g>
</svg>
