<svg xmlns="http://www.w3.org/2000/svg" width="94.844" height="83.78" viewBox="0 0 94.844 83.78">
  <g id="Grupo_9499" data-name="Grupo 9499" transform="translate(1184.019 -1555.183)">
    <g id="Grupo_9498" data-name="Grupo 9498" transform="translate(-1184.019 1555.182)">
      <g id="Grupo_9443" data-name="Grupo 9443" transform="translate(0 47.011)">
        <g id="Caminho_4158" data-name="Caminho 4158">
          <g id="Caminho_4190" data-name="Caminho 4190">
            <path id="Caminho_4235" data-name="Caminho 4235" d="M-1096.077,1615.182a7.4,7.4,0,0,0-10.013-3.053l-.036.021a110.959,110.959,0,0,1-15.391,6.927,9.717,9.717,0,0,0,2.176-6.016,10.385,10.385,0,0,0-.05-1.113c-.289-2.317-1.5-2.664-2.2-2.664-7.393,0-12.238-2.1-16.924-4.133-7.2-3.123-14-6.074-28.368-1.15a2.71,2.71,0,0,0-.863.509,2.8,2.8,0,0,0-1.685-.57h-11.888a2.622,2.622,0,0,0-2.7,2.525v25.918a2.622,2.622,0,0,0,2.7,2.528h11.889a2.769,2.769,0,0,0,1.993-.837,2.706,2.706,0,0,0,1.132.407l28.814,3.424a19.654,19.654,0,0,0,3.166.241,34.961,34.961,0,0,0,14.864-3.719l20.258-9.284A7.384,7.384,0,0,0-1096.077,1615.182Zm-72.655-8.586v25.786c0,.286-.319.522-.7.522h-11.888c-.38,0-.7-.238-.7-.522v-25.918c0-.285.318-.52.7-.52h11.889c.38,0,.7.239.7.52Zm68.651,16.746-20.258,9.285c-4.254,2.215-11.329,4.193-16.87,3.3l-28.86-3.43a.75.75,0,0,1-.665-.744v-25.155a.743.743,0,0,1,.5-.7,40.246,40.246,0,0,1,13.026-2.524c5.547,0,9.537,1.73,13.886,3.617,4.873,2.114,9.86,4.312,17.652,4.273,0,0,.18.172.274.911a8.175,8.175,0,0,1,.038.865,7.761,7.761,0,0,1-7.762,7.653h-12.461a1,1,0,0,0-1,1v0a1,1,0,0,0,1,1h12.621c.165,0,.332-.01.495-.02,8.282-.483,22.674-8.426,23.361-8.8a5.361,5.361,0,0,1,7.235,2.26,5.362,5.362,0,0,1-2.225,7.217Z" transform="translate(1184.019 -1601.376)" fill="#fff"/>
          </g>
        </g>
      </g>
      <g id="Grupo_9486" data-name="Grupo 9486" transform="translate(54.135 12.195)">
        <g id="Linha_177" data-name="Linha 177" transform="translate(6.671)">
          <path id="Caminho_4236" data-name="Caminho 4236" d="M-1123.252,1602.243a1.017,1.017,0,0,1-1.018-1.018v-33.043a1.018,1.018,0,0,1,1.018-1.018,1.018,1.018,0,0,1,1.018,1.018v33.043A1.017,1.017,0,0,1-1123.252,1602.243Z" transform="translate(1124.27 -1567.165)" fill="#fff"/>
        </g>
        <g id="Caminho_449" data-name="Caminho 449" transform="translate(7.053 4.362)">
          <path id="Caminho_4237" data-name="Caminho 4237" d="M-1117.215,1575.97a1.018,1.018,0,0,1-.76-.34,6.412,6.412,0,0,0-4.885-2.141,1.018,1.018,0,0,1-1.034-1,1.019,1.019,0,0,1,1-1.035,8.394,8.394,0,0,1,6.438,2.821,1.018,1.018,0,0,1-.083,1.437A1.014,1.014,0,0,1-1117.215,1575.97Z" transform="translate(1123.894 -1571.451)" fill="#fff"/>
        </g>
        <g id="Caminho_450" data-name="Caminho 450" transform="translate(0.001 4.349)">
          <path id="Caminho_4238" data-name="Caminho 4238" d="M-1122.324,1598.084c-.165,0-.33-.005-.5-.015a1.018,1.018,0,0,1-.949-1.082,1.025,1.025,0,0,1,1.082-.949,5.634,5.634,0,0,0,5.971-5.2c0-2.334-2.5-3.489-6.3-4.976-3.66-1.432-7.808-3.053-7.808-7.241a7.715,7.715,0,0,1,8.131-7.163,1.018,1.018,0,0,1,.954,1.079,1.023,1.023,0,0,1-1.078.952,5.671,5.671,0,0,0-5.975,5.21c0,2.525,2.582,3.729,6.516,5.267,3.558,1.392,7.59,2.969,7.59,6.947A7.7,7.7,0,0,1-1122.324,1598.084Z" transform="translate(1130.824 -1571.439)" fill="#fff"/>
        </g>
        <g id="Caminho_451" data-name="Caminho 451" transform="translate(0 22.8)">
          <path id="Caminho_4239" data-name="Caminho 4239" d="M-1123.183,1597.763a7.685,7.685,0,0,1-7.639-7.1,1.019,1.019,0,0,1,.941-1.089,1.017,1.017,0,0,1,1.089.941,5.635,5.635,0,0,0,5.971,5.2,1.034,1.034,0,0,1,1.081.949,1.017,1.017,0,0,1-.95,1.082C-1122.856,1597.758-1123.021,1597.763-1123.183,1597.763Z" transform="translate(1130.825 -1589.569)" fill="#fff"/>
        </g>
      </g>
      <g id="Caminho_4224" data-name="Caminho 4224" transform="translate(29.469)">
        <path id="Caminho_4240" data-name="Caminho 4240" d="M-1096.132,1606.595a1,1,0,0,1-.566-.173,1.016,1.016,0,0,1-.278-1.411,31.269,31.269,0,0,0,4.963-12.966,30.4,30.4,0,0,0-1.058-13.138,30.688,30.688,0,0,0-38.276-20.345,30.762,30.762,0,0,0-21.283,34.236,1.017,1.017,0,0,1-.841,1.168,1.015,1.015,0,0,1-1.168-.84,32.8,32.8,0,0,1,22.7-36.51,32.718,32.718,0,0,1,40.817,21.691,32.442,32.442,0,0,1,1.13,14.021,33.324,33.324,0,0,1-5.289,13.815A1.017,1.017,0,0,1-1096.132,1606.595Z" transform="translate(1155.063 -1555.182)" fill="#fff"/>
      </g>
      <g id="Caminho_4225" data-name="Caminho 4225" transform="translate(69.958 44.332)">
        <path id="Caminho_4241" data-name="Caminho 4241" d="M-1115.277,1598.744" transform="translate(1115.277 -1598.744)" fill="none" stroke="#fff" stroke-linecap="round" stroke-miterlimit="10" stroke-width="2"/>
      </g>
    </g>
    <g id="Ret창ngulo_3081" data-name="Ret창ngulo 3081" transform="translate(-1183.071 1606.07)">
      <rect id="Ret창ngulo_3082" data-name="Ret창ngulo 3082" width="15.184" height="28.47" fill="#fff"/>
    </g>
  </g>
</svg>
