<svg xmlns="http://www.w3.org/2000/svg" width="78.523" height="88.773" viewBox="0 0 78.523 88.773">
  <g id="Grupo_9468" data-name="Grupo 9468" transform="translate(1268.526 -1315.381)">
    <g id="Grupo_9455" data-name="Grupo 9455">
      <g id="Grupo_9438" data-name="Grupo 9438">
        <g id="Ret창ngulo_334" data-name="Ret창ngulo 334">
          <path id="Caminho_4181" data-name="Caminho 4181" d="M-1230.034,1404.154a2.137,2.137,0,0,1-1.53-.6l-36.365-36.361c-.978-.977-.731-2.758.562-4.053l32.682-32.682a3.669,3.669,0,0,1,2.225-1.052l7.445-.727a1,1,0,0,1,1.093.9,1,1,0,0,1-.9,1.093l-7.445.728a1.66,1.66,0,0,0-1.007.475l-32.68,32.681c-.567.567-.62,1.129-.559,1.229l36.362,36.358c.1.062.657.008,1.224-.561l32.682-32.681a1.659,1.659,0,0,0,.476-1.008l3.755-38.446a1.617,1.617,0,0,0,0-.326,1.667,1.667,0,0,0-1.807-1.482l-23.428,2.29a1,1,0,0,1-1.093-.9,1,1,0,0,1,.9-1.093l23.428-2.29a3.661,3.661,0,0,1,3.993,3.278,3.711,3.711,0,0,1,0,.714l-3.755,38.446a3.661,3.661,0,0,1-1.054,2.228l-32.681,32.68a3.677,3.677,0,0,1-2.522,1.164Z" fill="#fff"/>
        </g>
        <g id="Ret창ngulo_334-2" data-name="Ret창ngulo 334-2">
          <path id="Caminho_4182" data-name="Caminho 4182" d="M-1224.917,1329.669" fill="none" stroke="#fff" stroke-linecap="round" stroke-miterlimit="10" stroke-width="1.6"/>
        </g>
        <g id="Elipse_629" data-name="Elipse 629">
          <circle id="Elipse_636" data-name="Elipse 636" cx="4.458" cy="4.458" r="4.458" transform="translate(-1207.412 1334.117)" fill="#fff"/>
          <path id="Caminho_4183" data-name="Caminho 4183" d="M-1202.954,1343.833a5.263,5.263,0,0,1-5.258-5.258,5.263,5.263,0,0,1,5.258-5.257,5.263,5.263,0,0,1,5.258,5.257A5.264,5.264,0,0,1-1202.954,1343.833Zm0-8.916a3.663,3.663,0,0,0-3.658,3.658,3.663,3.663,0,0,0,3.658,3.659,3.663,3.663,0,0,0,3.658-3.659A3.663,3.663,0,0,0-1202.954,1334.917Z" fill="#fff"/>
        </g>
        <g id="Caminho_4129" data-name="Caminho 4129">
          <path id="Caminho_4184" data-name="Caminho 4184" d="M-1206.435,1340.077a1,1,0,0,1-.991-.874,1,1,0,0,1,.867-1.118,8.214,8.214,0,0,0,5.845-4.11,11.633,11.633,0,0,0,1.708-7.329c-.72-5.691-5.278-9.816-10.163-9.2-4.988.63-8.156,6.669-7.552,11.442a1,1,0,0,1-.867,1.117,1.009,1.009,0,0,1-1.118-.867c-.734-5.809,3.081-12.892,9.286-13.677,5.977-.76,11.54,4.152,12.4,10.936a13.691,13.691,0,0,1-1.992,8.634,10.17,10.17,0,0,1-7.294,5.041C-1206.35,1340.074-1206.393,1340.077-1206.435,1340.077Z" fill="#fff"/>
        </g>
      </g>
    </g>
  </g>
</svg>
