<svg xmlns="http://www.w3.org/2000/svg" width="84.791" height="92.815" viewBox="0 0 84.791 92.815">
  <g id="Grupo_9466" data-name="Grupo 9466" transform="translate(1545.692 -1313.383)">
    <g id="Linha_20" data-name="Linha 20">
      <path id="Caminho_4213" data-name="Caminho 4213" d="M-1461.9,1406.2h-82.791a1,1,0,0,1-1-1,1,1,0,0,1,1-1h82.791a1,1,0,0,1,1,1A1,1,0,0,1-1461.9,1406.2Z" fill="#fff"/>
    </g>
    <g id="Caminho_4179" data-name="Caminho 4179">
      <path id="Caminho_4214" data-name="Caminho 4214" d="M-1474.876,1406.061h-55.748a1,1,0,0,1-.825-.436,1,1,0,0,1-.106-.927l25.715-66.065a1,1,0,0,1,1.275-.577,4.821,4.821,0,0,0,1.6.293,4.8,4.8,0,0,0,1.764-.346,1,1,0,0,1,.768.011,1,1,0,0,1,.533.553l25.95,66.13a1,1,0,0,1-.1.928A1,1,0,0,1-1474.876,1406.061Zm-54.285-2h52.819l-25.074-63.9a6.823,6.823,0,0,1-1.551.184,6.91,6.91,0,0,1-1.339-.144Z" fill="#fff"/>
    </g>
    <g id="Grupo_9465" data-name="Grupo 9465">
      <g id="Grupo_9464" data-name="Grupo 9464">
        <g id="Caminho_4171" data-name="Caminho 4171">
          <path id="Caminho_4215" data-name="Caminho 4215" d="M-1523.148,1355.607a1,1,0,0,1-.706-.292,29.551,29.551,0,0,1-8.625-20.821,29.554,29.554,0,0,1,8.623-20.818,1,1,0,0,1,1.415,0,1,1,0,0,1,0,1.414,27.542,27.542,0,0,0-8.036,19.4,27.54,27.54,0,0,0,8.038,19.405,1,1,0,0,1,0,1.414A1,1,0,0,1-1523.148,1355.607Z" fill="#fff"/>
        </g>
        <g id="Caminho_4172" data-name="Caminho 4172">
          <path id="Caminho_4216" data-name="Caminho 4216" d="M-1482.935,1355.592a.994.994,0,0,1-.708-.294,1,1,0,0,1,0-1.414,27.581,27.581,0,0,0,8.047-19.392,27.549,27.549,0,0,0-8.036-19.4,1,1,0,0,1,0-1.414,1,1,0,0,1,1.414,0,29.565,29.565,0,0,1,8.623,20.818,29.593,29.593,0,0,1-8.635,20.807A1,1,0,0,1-1482.935,1355.592Z" fill="#fff"/>
        </g>
        <g id="Caminho_4173" data-name="Caminho 4173">
          <path id="Caminho_4217" data-name="Caminho 4217" d="M-1515.165,1347.625a.994.994,0,0,1-.706-.292,18.214,18.214,0,0,1-5.319-12.84,18.222,18.222,0,0,1,5.316-12.837,1,1,0,0,1,1.414,0,1,1,0,0,1,0,1.414,16.2,16.2,0,0,0-4.729,11.421,16.2,16.2,0,0,0,4.731,11.424,1,1,0,0,1,0,1.414A.994.994,0,0,1-1515.165,1347.625Z" fill="#fff"/>
        </g>
        <g id="Caminho_4174" data-name="Caminho 4174">
          <path id="Caminho_4218" data-name="Caminho 4218" d="M-1523.148,1355.606a1,1,0,0,1-.706-.292,29.556,29.556,0,0,1-8.626-20.821,29.558,29.558,0,0,1,8.624-20.818,1,1,0,0,1,1.415,0,1,1,0,0,1,0,1.414,27.549,27.549,0,0,0-8.037,19.4,27.545,27.545,0,0,0,8.039,19.4,1,1,0,0,1,0,1.414A1,1,0,0,1-1523.148,1355.606Z" fill="#fff"/>
        </g>
        <g id="Caminho_4175" data-name="Caminho 4175">
          <path id="Caminho_4219" data-name="Caminho 4219" d="M-1490.913,1347.619a.99.99,0,0,1-.708-.294,1,1,0,0,1,0-1.414,16.233,16.233,0,0,0,4.738-11.42,16.209,16.209,0,0,0-4.73-11.419,1,1,0,0,1,0-1.414,1,1,0,0,1,1.414,0,18.224,18.224,0,0,1,5.317,12.836,18.246,18.246,0,0,1-5.326,12.835A1,1,0,0,1-1490.913,1347.619Z" fill="#fff"/>
        </g>
        <g id="Caminho_4176" data-name="Caminho 4176">
          <path id="Caminho_4220" data-name="Caminho 4220" d="M-1482.936,1355.6a1,1,0,0,1-.708-.294,1,1,0,0,1,0-1.414,27.21,27.21,0,0,0,8.048-19.393,27.542,27.542,0,0,0-8.036-19.4,1,1,0,0,1,0-1.414,1,1,0,0,1,1.414,0,29.553,29.553,0,0,1,8.623,20.817,29.2,29.2,0,0,1-8.635,20.808A1,1,0,0,1-1482.936,1355.6Z" fill="#fff"/>
        </g>
        <g id="Caminho_4177" data-name="Caminho 4177">
          <path id="Caminho_4221" data-name="Caminho 4221" d="M-1490.913,1347.619a.99.99,0,0,1-.708-.294,1,1,0,0,1,0-1.414,16.233,16.233,0,0,0,4.738-11.42,16.209,16.209,0,0,0-4.73-11.419,1,1,0,0,1,0-1.414,1,1,0,0,1,1.414,0,18.224,18.224,0,0,1,5.317,12.836,18.246,18.246,0,0,1-5.326,12.835A1,1,0,0,1-1490.913,1347.619Z" fill="#fff"/>
        </g>
        <g id="Caminho_4178" data-name="Caminho 4178">
          <path id="Caminho_4222" data-name="Caminho 4222" d="M-1500.825,1339.948a5.862,5.862,0,0,0,3.724-5.452,5.87,5.87,0,0,0-5.869-5.869h0a5.869,5.869,0,0,0-5.869,5.869h0a5.85,5.85,0,0,0,3.931,5.516" fill="#fff"/>
        </g>
        <g id="Caminho_4180" data-name="Caminho 4180">
          <path id="Caminho_4223" data-name="Caminho 4223" d="M-1515.165,1347.625a.994.994,0,0,1-.706-.292,18.214,18.214,0,0,1-5.319-12.84,18.222,18.222,0,0,1,5.316-12.837,1,1,0,0,1,1.414,0,1,1,0,0,1,0,1.414,16.2,16.2,0,0,0-4.729,11.421,16.2,16.2,0,0,0,4.731,11.424,1,1,0,0,1,0,1.414A.994.994,0,0,1-1515.165,1347.625Z" fill="#fff"/>
        </g>
      </g>
    </g>
  </g>
</svg>
