<svg xmlns="http://www.w3.org/2000/svg" width="104.082" height="73.145" viewBox="0 0 104.082 73.145">
  <g id="Grupo_9469" data-name="Grupo 9469" transform="translate(1129.145 -1325.318)">
    <g id="Linha_14" data-name="Linha 14" transform="translate(-1090.556 1387.021)">
      <path id="Caminho_4200" data-name="Caminho 4200" d="M-1076.986,1389.669h-21.641c-.308,0-.558-.444-.558-.99s.25-.992.558-.992h21.641c.308,0,.559.444.559.992S-1076.677,1389.669-1076.986,1389.669Z" transform="translate(1099.185 -1387.687)" fill="#fff" stroke="#fff" stroke-width="0.2"/>
    </g>
    <g id="Grupo_9452" data-name="Grupo 9452" transform="translate(-1113.738 1377.339)">
      <g id="Elipse_633" data-name="Elipse 633" transform="translate(0)">
        <circle id="Elipse_640" data-name="Elipse 640" cx="9.769" cy="9.769" r="9.769" transform="translate(0.792 0.793)" fill="#fff"/>
        <path id="Caminho_4201" data-name="Caminho 4201" d="M-1112.281,1398.835a10.573,10.573,0,0,1-10.562-10.562,10.573,10.573,0,0,1,10.562-10.562,10.574,10.574,0,0,1,10.562,10.562A10.574,10.574,0,0,1-1112.281,1398.835Zm0-19.539a8.987,8.987,0,0,0-8.977,8.978,8.988,8.988,0,0,0,8.977,8.978,8.988,8.988,0,0,0,8.977-8.978A8.988,8.988,0,0,0-1112.281,1379.3Z" transform="translate(1122.844 -1377.711)" fill="#fff"/>
      </g>
      <g id="Elipse_634" data-name="Elipse 634" transform="translate(49.338)">
        <circle id="Elipse_641" data-name="Elipse 641" cx="9.769" cy="9.769" r="9.769" transform="translate(0.792 0.793)" fill="#fff"/>
        <path id="Caminho_4202" data-name="Caminho 4202" d="M-1053.694,1398.835a10.573,10.573,0,0,1-10.562-10.562,10.573,10.573,0,0,1,10.562-10.562,10.574,10.574,0,0,1,10.562,10.562A10.574,10.574,0,0,1-1053.694,1398.835Zm0-19.539a8.987,8.987,0,0,0-8.977,8.978,8.988,8.988,0,0,0,8.977,8.978,8.988,8.988,0,0,0,8.977-8.978A8.988,8.988,0,0,0-1053.694,1379.3Z" transform="translate(1064.256 -1377.711)" fill="#fff"/>
      </g>
    </g>
    <g id="Caminho_4143" data-name="Caminho 4143" transform="translate(-1129.045 1325.418)">
      <path id="Caminho_4203" data-name="Caminho 4203" d="M-1026.154,1389H-1039.5a.99.99,0,0,1-.99-.99.99.99,0,0,1,.99-.991h12.355v-24.462l-6.45-9.6h-35.725a.989.989,0,0,1-.99-.991V1327.4l-56.754.009v59.614h9.252a.99.99,0,0,1,.991.991.991.991,0,0,1-.991.99h-10.243a.99.99,0,0,1-.99-.99v-61.6a.99.99,0,0,1,.99-.99l58.735-.009a.99.99,0,0,1,.991.991v24.568h35.263a.991.991,0,0,1,.822.438l6.913,10.292a.991.991,0,0,1,.168.553v25.753A.991.991,0,0,1-1026.154,1389Z" transform="translate(1129.045 -1325.418)" fill="#fff" stroke="#fff" stroke-width="0.2"/>
    </g>
    <g id="Caminho_4144" data-name="Caminho 4144" transform="translate(-1070.281 1331.641)">
      <path id="Caminho_4204" data-name="Caminho 4204" d="M-1032.586,1353.2a.988.988,0,0,1-.868-.512l-14.659-18.936h-20.9a.989.989,0,0,1-.99-.99.989.989,0,0,1,.99-.991h21.485a.991.991,0,0,1,.868.512l14.941,19.449a.99.99,0,0,1-.39,1.345A.989.989,0,0,1-1032.586,1353.2Z" transform="translate(1070.004 -1331.773)" fill="#fff" stroke="#fff" stroke-width="0.2"/>
    </g>
    <g id="Caminho_4146" data-name="Caminho 4146" transform="translate(-1069.315 1355.645)">
      <path id="Caminho_4205" data-name="Caminho 4205" d="M-1069.029,1355.809" transform="translate(1069.029 -1355.809)" fill="none" stroke="#fff" stroke-linecap="round" stroke-linejoin="round" stroke-width="1.6"/>
    </g>
  </g>
</svg>
