<svg xmlns="http://www.w3.org/2000/svg" width="103.248" height="81.552" viewBox="0 0 103.248 81.552">
  <g id="Grupo_9467" data-name="Grupo 9467" transform="translate(1420.936 -1318.382)">
    <g id="Caminho_403" data-name="Caminho 403">
      <path id="Caminho_4185" data-name="Caminho 4185" d="M-1361.813,1351.315a.363.363,0,0,1,.123.5.362.362,0,0,1-.123.123l-6.91,3.99-6.911,3.99a.362.362,0,0,1-.492-.142.354.354,0,0,1-.045-.169v-15.955a.357.357,0,0,1,.357-.357h0a.357.357,0,0,1,.18.048l6.911,3.99Z" fill="#fff"/>
      <path id="Caminho_4186" data-name="Caminho 4186" d="M-1375.81,1360.459a.86.86,0,0,1-.754-.443.858.858,0,0,1-.107-.4V1343.65a.858.858,0,0,1,.856-.858.867.867,0,0,1,.435.117l13.824,7.978a.855.855,0,0,1,.392.529.861.861,0,0,1-.1.655.9.9,0,0,1-.287.29l-13.835,7.987A.88.88,0,0,1-1375.81,1360.459Zm.139-16.563v15.464l13.4-7.734Z" fill="#fff"/>
    </g>
    <g id="Grupo_9434" data-name="Grupo 9434">
      <g id="Retângulo_337" data-name="Retângulo 337">
        <path id="Caminho_4187" data-name="Caminho 4187" d="M-1320.134,1385.47h-98.356a2.448,2.448,0,0,1-2.446-2.445v-62.2a2.449,2.449,0,0,1,2.446-2.446h98.356a2.45,2.45,0,0,1,2.446,2.446v62.2A2.449,2.449,0,0,1-1320.134,1385.47Zm-98.356-65.088a.447.447,0,0,0-.446.446v62.2a.446.446,0,0,0,.446.445h98.356a.446.446,0,0,0,.446-.445v-62.2a.446.446,0,0,0-.446-.446Z" fill="#fff"/>
      </g>
      <g id="Linha_169" data-name="Linha 169">
        <path id="Caminho_4188" data-name="Caminho 4188" d="M-1369.312,1399.693a1,1,0,0,1-1-1V1384.47a1,1,0,0,1,1-1,1,1,0,0,1,1,1v14.223A1,1,0,0,1-1369.312,1399.693Z" fill="#fff"/>
      </g>
      <g id="Linha_170" data-name="Linha 170">
        <path id="Caminho_4189" data-name="Caminho 4189" d="M-1338.159,1399.934h-57.833a1,1,0,0,1-1-1,1,1,0,0,1,1-1h57.833a1,1,0,0,1,1,1A1,1,0,0,1-1338.159,1399.934Z" fill="#fff"/>
      </g>
    </g>
  </g>
</svg>
